<svg width="46" height="46" viewBox="0 0 46 46" fill="none" xmlns="http://www.w3.org/2000/svg">
<g clip-path="url(#clip0_2191_982)">
<rect y="14" width="34.9996" height="28.9997" rx="5" fill="#5F7EFF"/>
<path d="M6.5 14.2499C6.5 11.5745 7.41299 8.97932 9.08801 6.89325C10.763 4.80719 13.0998 3.35521 15.712 2.77736C18.3242 2.1995 21.0553 2.53039 23.4539 3.7153C25.8526 4.90022 27.775 6.86821 28.9034 9.29392L25.8985 10.6918C25.0883 8.95028 23.7081 7.53738 21.9861 6.68668C20.264 5.83598 18.3032 5.59843 16.4278 6.01329C14.5524 6.42815 12.8748 7.47059 11.6722 8.96826C10.4696 10.4659 9.81417 12.3291 9.81417 14.2499L6.5 14.2499Z" fill="#5F7EFF"/>
<rect x="3.50098" y="11.5" width="34.9996" height="28.9997" rx="5" fill="#D9E4F1"/>
<path d="M24.304 21.4958C24.7419 20.9348 25.5516 20.835 26.1127 21.2728C26.6737 21.7107 26.7735 22.5204 26.3357 23.0815L20.8267 30.1408C20.5983 30.4335 20.2546 30.6136 19.8839 30.6346C19.5132 30.6557 19.1514 30.516 18.8912 30.2511L15.87 27.1739L15.7824 27.0752C15.3742 26.5653 15.4109 25.8186 15.8871 25.3512C16.3632 24.884 17.1099 24.8613 17.6121 25.2787L17.7093 25.3683L19.6997 27.3959L24.304 21.4958Z" fill="#5F7EFF"/>
<circle cx="37.749" cy="31.2494" r="6.24993" fill="#8DA3FF"/>
<path d="M30 43.8744C30 40.3537 32.8542 37.4995 36.3749 37.4995H39.6249C43.1457 37.4995 45.9998 40.3537 45.9998 43.8744V43.8744C45.9998 45.048 45.0484 45.9994 43.8748 45.9994H32.125C30.9514 45.9994 30 45.048 30 43.8744V43.8744Z" fill="#335AFF"/>
<path d="M10.001 11.7499C10.001 9.07454 10.914 6.47932 12.589 4.39325C14.264 2.30719 16.6008 0.855206 19.213 0.277355C21.8251 -0.300495 24.5563 0.0303888 26.9549 1.2153C29.3535 2.40022 31.276 4.36821 32.4044 6.79392L29.3995 8.19179C28.5893 6.45028 27.2091 5.03738 25.4871 4.18668C23.765 3.33598 21.8042 3.09843 19.9288 3.51329C18.0534 3.92815 16.3758 4.97059 15.1732 6.46826C13.9706 7.96593 13.3151 9.82914 13.3151 11.7499L10.001 11.7499Z" fill="#D9E4F1"/>
</g>
<defs>
<clipPath id="clip0_2191_982">
<rect width="46" height="46" fill="white"/>
</clipPath>
</defs>
</svg>
