<svg width="46" height="46" viewBox="0 0 46 46" fill="none" xmlns="http://www.w3.org/2000/svg">
<g clip-path="url(#clip0_2191_954)">
<path d="M29.4333 3.64355H9C6.23858 3.64355 4 5.88213 4 8.64356V41.0001C4 43.7616 6.23858 46.0001 9 46.0001H32.2479C35.0093 46.0001 37.2479 43.7616 37.2479 41.0001V11.4795C37.2479 10.1599 36.7263 8.89389 35.7968 7.95731L32.9822 5.12141C32.0435 4.17554 30.766 3.64355 29.4333 3.64355Z" fill="#5F7EFF"/>
<path d="M33.5329 0H13.0996C10.3382 0 8.09961 2.23858 8.09961 5V37.3566C8.09961 40.118 10.3382 42.3566 13.0996 42.3566H36.3475C39.1089 42.3566 41.3475 40.118 41.3475 37.3566V7.8359C41.3475 6.51637 40.8259 5.25033 39.8964 4.31376L37.0818 1.47786C36.1431 0.531987 34.8656 0 33.5329 0Z" fill="#D9E4F1"/>
<rect width="5.30945" height="11.4572" rx="2.65473" transform="matrix(0.707109 -0.707104 0.707109 0.707104 25.3398 25.2925)" fill="#335AFF"/>
<circle cx="9.78057" cy="9.78057" r="9.78057" transform="matrix(0.707109 -0.707104 0.707109 0.707104 9.53125 19.3647)" fill="#335AFF"/>
<ellipse cx="23.4983" cy="19.3639" rx="6.23752" ry="6.23747" fill="#5F7EFF"/>
</g>
<defs>
<clipPath id="clip0_2191_954">
<rect width="46" height="46" fill="white"/>
</clipPath>
</defs>
</svg>
