<svg width="46" height="46" viewBox="0 0 46 46" fill="none" xmlns="http://www.w3.org/2000/svg">
<g clip-path="url(#clip0_2191_964)">
<rect y="11.0664" width="40.3779" height="26.0667" rx="5" fill="#5F7EFF"/>
<rect x="3.06641" y="8" width="40.3779" height="26.0667" rx="5" fill="#D9E4F1"/>
<path d="M35.2666 24.8666C35.3376 23.4866 36.0333 20.2666 39.1 20.2666C42.1666 20.2666 42.9333 23.2566 42.9333 24.8666" stroke="#5F7EFF" stroke-width="5" stroke-linecap="round"/>
<path d="M38.5105 13.4663V17.8538H37.4522V14.4561H37.4265L36.4453 15.0559V14.139L37.5272 13.4663H38.5105Z" fill="#5F7EFF"/>
<path d="M31.8473 17.9608C31.4645 17.9608 31.1346 17.8701 30.8575 17.6888C30.5804 17.506 30.3669 17.2439 30.217 16.9025C30.067 16.5598 29.9927 16.1477 29.9942 15.6664C29.9956 15.1851 30.0706 14.7766 30.2191 14.441C30.3691 14.1039 30.5819 13.8476 30.8575 13.6719C31.1346 13.4948 31.4645 13.4062 31.8473 13.4062C32.23 13.4062 32.56 13.4948 32.837 13.6719C33.1155 13.8476 33.3298 14.1039 33.4797 14.441C33.6297 14.7781 33.704 15.1865 33.7025 15.6664C33.7025 16.1491 33.6276 16.5619 33.4776 16.9047C33.3276 17.2474 33.1141 17.5095 32.837 17.6909C32.5614 17.8709 32.2315 17.9608 31.8473 17.9608ZM31.8473 17.0932C32.0758 17.0932 32.2608 16.9768 32.4021 16.744C32.5435 16.5098 32.6135 16.1506 32.6121 15.6664C32.6121 15.3493 32.58 15.088 32.5157 14.8823C32.4514 14.6752 32.3622 14.521 32.2479 14.4196C32.1336 14.3182 32.0001 14.2675 31.8473 14.2675C31.6202 14.2675 31.4367 14.3824 31.2967 14.6124C31.1567 14.8409 31.086 15.1922 31.0846 15.6664C31.0832 15.9878 31.1139 16.2541 31.1767 16.4655C31.241 16.6769 31.331 16.8347 31.4467 16.9389C31.5624 17.0418 31.6959 17.0932 31.8473 17.0932Z" fill="#5F7EFF"/>
<path d="M26.8904 13.4663V17.8538H25.8321V14.4561H25.8064L24.8252 15.0559V14.139L25.9071 13.4663H26.8904Z" fill="#5F7EFF"/>
<path d="M20.2262 17.9608C19.8434 17.9608 19.5135 17.8701 19.2364 17.6888C18.9594 17.506 18.7458 17.2439 18.5959 16.9025C18.4459 16.5598 18.3716 16.1477 18.3731 15.6664C18.3745 15.1851 18.4495 14.7766 18.598 14.441C18.748 14.1039 18.9608 13.8476 19.2364 13.6719C19.5135 13.4948 19.8434 13.4062 20.2262 13.4062C20.609 13.4062 20.9389 13.4948 21.2159 13.6719C21.4944 13.8476 21.7087 14.1039 21.8586 14.441C22.0086 14.7781 22.0829 15.1865 22.0814 15.6664C22.0814 16.1491 22.0065 16.5619 21.8565 16.9047C21.7065 17.2474 21.493 17.5095 21.2159 17.6909C20.9403 17.8709 20.6104 17.9608 20.2262 17.9608ZM20.2262 17.0932C20.4547 17.0932 20.6397 16.9768 20.781 16.744C20.9224 16.5098 20.9924 16.1506 20.991 15.6664C20.991 15.3493 20.9589 15.088 20.8946 14.8823C20.8303 14.6752 20.7411 14.521 20.6268 14.4196C20.5125 14.3182 20.379 14.2675 20.2262 14.2675C19.9991 14.2675 19.8156 14.3824 19.6756 14.6124C19.5356 14.8409 19.4649 15.1922 19.4635 15.6664C19.4621 15.9878 19.4928 16.2541 19.5556 16.4655C19.6199 16.6769 19.7099 16.8347 19.8256 16.9389C19.9413 17.0418 20.0748 17.0932 20.2262 17.0932Z" fill="#5F7EFF"/>
<path d="M15.2693 13.4663V17.8538H14.211V14.4561H14.1853L13.2041 15.0559V14.139L14.286 13.4663H15.2693Z" fill="#5F7EFF"/>
<path d="M8.60705 17.9608C8.22428 17.9608 7.89436 17.8701 7.61729 17.6888C7.34021 17.506 7.12669 17.2439 6.97673 16.9025C6.82677 16.5598 6.7525 16.1477 6.75393 15.6664C6.75535 15.1851 6.83034 14.7766 6.97887 14.441C7.12883 14.1039 7.34164 13.8476 7.61729 13.6719C7.89436 13.4948 8.22428 13.4062 8.60705 13.4062C8.98981 13.4062 9.31973 13.4948 9.5968 13.6719C9.87531 13.8476 10.0895 14.1039 10.2395 14.441C10.3895 14.7781 10.4637 15.1865 10.4623 15.6664C10.4623 16.1491 10.3873 16.5619 10.2374 16.9047C10.0874 17.2474 9.87388 17.5095 9.5968 17.6909C9.32116 17.8709 8.99124 17.9608 8.60705 17.9608ZM8.60705 17.0932C8.83556 17.0932 9.02052 16.9768 9.16191 16.744C9.3033 16.5098 9.37329 16.1506 9.37186 15.6664C9.37186 15.3493 9.33972 15.088 9.27545 14.8823C9.21118 14.6752 9.12192 14.521 9.00766 14.4196C8.8934 14.3182 8.75987 14.2675 8.60705 14.2675C8.37996 14.2675 8.19643 14.3824 8.05647 14.6124C7.9165 14.8409 7.8458 15.1922 7.84437 15.6664C7.84295 15.9878 7.87365 16.2541 7.93649 16.4655C8.00076 16.6769 8.09074 16.8347 8.20643 16.9389C8.32212 17.0418 8.45565 17.0932 8.60705 17.0932Z" fill="#5F7EFF"/>
<rect x="32.2002" y="24.8667" width="13.8001" height="11.2445" rx="5" fill="#335AFF"/>
<path d="M42.6226 31.7702L42.6847 30.9775L42.0249 31.4296L41.71 30.8769L42.4255 30.5362L41.71 30.1956L42.0249 29.6429L42.6847 30.0949L42.6226 29.3022H43.2546L43.1925 30.0949L43.8523 29.6429L44.1672 30.1956L43.4517 30.5362L44.1672 30.8769L43.8523 31.4296L43.1925 30.9775L43.2546 31.7702H42.6226Z" fill="#8DA3FF"/>
<path d="M39.0855 31.7702L39.1476 30.9775L38.4878 31.4296L38.1729 30.8769L38.8884 30.5362L38.1729 30.1956L38.4878 29.6429L39.1476 30.0949L39.0855 29.3022H39.7175L39.6553 30.0949L40.3152 29.6429L40.6301 30.1956L39.9146 30.5362L40.6301 30.8769L40.3152 31.4296L39.6553 30.9775L39.7175 31.7702H39.0855Z" fill="#8DA3FF"/>
<path d="M35.5533 31.7702L35.6154 30.9775L34.9555 31.4296L34.6406 30.8769L35.3562 30.5362L34.6406 30.1956L34.9555 29.6429L35.6154 30.0949L35.5533 29.3022H36.1852L36.1231 30.0949L36.783 29.6429L37.0979 30.1956L36.3823 30.5362L37.0979 30.8769L36.783 31.4296L36.1231 30.9775L36.1852 31.7702H35.5533Z" fill="#8DA3FF"/>
</g>
<defs>
<clipPath id="clip0_2191_964">
<rect width="46" height="46" fill="white"/>
</clipPath>
</defs>
</svg>
