<svg width="44" height="44" viewBox="0 0 44 44" fill="none" xmlns="http://www.w3.org/2000/svg">
<g clip-path="url(#clip0_2127_1654)">
<path d="M6.31515 0.0778198C3.16295 0.0778198 0.599609 2.64117 0.599609 5.79337C0.599609 8.94557 3.16295 11.5089 6.31515 11.5089C9.46735 11.5089 12.0307 8.94557 12.0307 5.79337C12.0307 2.64117 9.46735 0.0778198 6.31515 0.0778198ZM6.31515 8.39165C4.88179 8.39165 3.71687 7.22673 3.71687 5.79337C3.71687 4.36 4.88179 3.19508 6.31515 3.19508C7.74851 3.19508 8.91343 4.36 8.91343 5.79337C8.91343 7.22673 7.74851 8.39165 6.31515 8.39165Z" fill="#2EE0A2"/>
<path d="M37.4929 11.5098C40.6451 11.5098 43.2084 8.94642 43.2084 5.79422C43.2084 2.64202 40.6451 0.0778198 37.4929 0.0778198C34.3407 0.0778198 31.7773 2.64117 31.7773 5.79337C31.7773 8.94556 34.3407 11.5098 37.4929 11.5098ZM37.4929 3.19593C38.9262 3.19593 40.0912 4.36086 40.0912 5.79422C40.0912 7.22758 38.9262 8.3925 37.4929 8.3925C36.0595 8.3925 34.8946 7.22758 34.8946 5.79422C34.8946 4.36086 36.0595 3.19593 37.4929 3.19593Z" fill="#2EE0A2"/>
<path d="M6.31515 31.2548C3.16295 31.2548 0.599609 33.819 0.599609 36.9712C0.599609 40.1234 3.16295 42.6867 6.31515 42.6867C9.46735 42.6867 12.0307 40.1234 12.0307 36.9712C12.0307 33.819 9.46735 31.2548 6.31515 31.2548ZM6.31515 39.5686C4.88179 39.5686 3.71687 38.4037 3.71687 36.9703C3.71687 35.5369 4.88179 34.372 6.31515 34.372C7.74851 34.372 8.91343 35.5369 8.91343 36.9703C8.91343 38.4037 7.74851 39.5686 6.31515 39.5686Z" fill="#2EE0A2"/>
<path d="M37.4929 31.2548C34.3407 31.2548 31.7773 33.8181 31.7773 36.9703C31.7773 40.1225 34.3407 42.6867 37.4929 42.6867C40.6451 42.6867 43.2084 40.1234 43.2084 36.9712C43.2084 33.819 40.6451 31.2548 37.4929 31.2548ZM37.4929 39.5686C36.0595 39.5686 34.8946 38.4037 34.8946 36.9703C34.8946 35.5369 36.0595 34.372 37.4929 34.372C38.9262 34.372 40.0912 35.5369 40.0912 36.9703C40.0903 38.4037 38.9254 39.5686 37.4929 39.5686Z" fill="#2EE0A2"/>
<path d="M21.8409 2.73925L23.3373 4.23482H14.6289V7.35293H23.3373L21.8409 8.8485L24.0454 11.0531L29.3042 5.79345L24.0454 0.534668L21.8409 2.73925Z" fill="#2EE0A2"/>
<path d="M21.9673 33.9161L19.7627 31.7115L14.5039 36.9712L19.7627 42.23L21.9673 40.0254L20.4708 38.5298H29.1792V35.4117H20.4708L21.9673 33.9161Z" fill="#2EE0A2"/>
<path d="M7.8749 28.6573V19.9489L9.37046 21.4453L11.575 19.2407L6.31541 13.9819L1.05664 19.2407L3.26122 21.4453L4.75679 19.9489V28.6573H7.8749Z" fill="#2EE0A2"/>
<path d="M35.9326 14.1073V22.8157L34.437 21.3193L32.2324 23.5238L37.492 28.7826L42.7508 23.5238L40.5462 21.3193L39.0507 22.8157V14.1073H35.9326Z" fill="#2EE0A2"/>
</g>
<defs>
<clipPath id="clip0_2127_1654">
<rect width="43" height="43" fill="white" transform="translate(0.5 0.0273438)"/>
</clipPath>
</defs>
</svg>
