<svg width="45" height="42" viewBox="0 0 45 42" fill="none" xmlns="http://www.w3.org/2000/svg">
<path d="M15.4738 10.711C16.0476 10.6516 16.6186 10.8479 17.0435 11.2485L23.37 17.2119L25.696 13.9584C26.0282 13.4936 26.5344 13.1916 27.092 13.1247C27.6492 13.0581 28.2087 13.2321 28.6361 13.6055L38.2876 22.0414L38.4397 22.1874C39.1483 22.9469 39.1961 24.1495 38.5186 24.9683C37.8402 25.7875 36.6749 25.9332 35.8313 25.3355L35.6674 25.2056L27.6685 18.2139L25.2951 21.5384C24.9551 22.0141 24.4334 22.3186 23.8616 22.3761C23.29 22.4335 22.721 22.2393 22.2978 21.8406L15.9812 15.8833L9.65875 24.8426C9.0033 25.7711 7.73917 25.9782 6.83516 25.305C5.93121 24.6317 5.72972 23.3331 6.38496 22.4045L14.0403 11.5588L14.1745 11.3864C14.509 11.0053 14.9718 10.7631 15.4738 10.711Z" fill="#5F7EFF"/>
<path d="M40.9091 6.74483C40.9091 5.63211 39.9933 4.73007 38.8636 4.73007H6.13636C5.00669 4.73007 4.09091 5.63211 4.09091 6.74483V26.6563C4.09091 27.769 5.00669 28.671 6.13636 28.671H38.8636C39.9933 28.671 40.9091 27.769 40.9091 26.6563V6.74483ZM45 26.6563C45 29.9944 42.2527 32.7006 38.8636 32.7006H6.13636C2.74734 32.7006 0 29.9944 0 26.6563V6.74483C3.91859e-07 3.40667 2.74734 0.700562 6.13636 0.700562H38.8636C42.2527 0.700562 45 3.40667 45 6.74483V26.6563Z" fill="#5F7EFF"/>
<path d="M36.9781 37.7006L37.1835 37.7103C38.2034 37.8124 39 38.6648 39 39.7006C39 40.7364 38.2034 41.5887 37.1835 41.6908L36.9781 41.7006H8.0219C6.90524 41.7006 6 40.8051 6 39.7006C6 38.596 6.90524 37.7006 8.0219 37.7006H36.9781Z" fill="#5F7EFF"/>
<path d="M25 39.6994C25 40.8046 24.1046 41.7006 23 41.7006C21.8954 41.7006 21 40.8046 21 39.6994L21 30.7018C21 29.5965 21.8954 28.7006 23 28.7006C24.1046 28.7006 25 29.5965 25 30.7018L25 39.6994Z" fill="#5F7EFF"/>
</svg>
