<svg width="47" height="46" viewBox="0 0 47 46" fill="none" xmlns="http://www.w3.org/2000/svg">
<g clip-path="url(#clip0_2191_834)">
<rect x="0.5" y="25.5185" width="10.7992" height="15.1189" rx="5" fill="#5F7EFF"/>
<rect x="12.3789" y="17.419" width="10.2593" height="23.2183" rx="5" fill="#5F7EFF"/>
<rect x="23.7188" y="8.23975" width="10.7992" height="32.3976" rx="5" fill="#5F7EFF"/>
<rect x="3.74023" y="22.2787" width="10.7992" height="15.1189" rx="5" fill="#D9E4F1"/>
<rect x="15.6191" y="14.1794" width="10.2593" height="23.2183" rx="5" fill="#D9E4F1"/>
<rect x="26.958" y="5" width="10.7992" height="32.3976" rx="5" fill="#D9E4F1"/>
<path d="M33.0245 17.9589L34.0427 20.6727L36.7941 21.6769L34.0427 22.6811L33.0245 25.3949L32.0064 22.6811L29.2549 21.6769L32.0064 20.6727L33.0245 17.9589Z" fill="#5F7EFF"/>
<path d="M34.0572 22.658L33.0244 25.3949L33.0761 21.6253L34.0572 22.658Z" fill="#5F7EFF"/>
<path d="M33.9915 20.6442L36.6909 21.6769L33.0762 21.6253L33.9915 20.6442Z" fill="#5F7EFF"/>
<path d="M32.0434 20.6442L29.2549 21.6769L33.0762 21.6253L32.0434 20.6442Z" fill="#5F7EFF"/>
<path d="M31.9918 22.7097L29.2549 21.6769L33.0762 21.6253L31.9918 22.7097Z" fill="#5F7EFF"/>
<path d="M34.0056 20.6441L33.0244 18.0105L33.0761 21.6252L34.0056 20.6441Z" fill="#5F7EFF"/>
<path d="M31.8136 27.8735L32.3934 29.4189L33.9602 29.9907L32.3934 30.5625L31.8136 32.1079L31.2338 30.5625L29.667 29.9907L31.2338 29.4189L31.8136 27.8735Z" fill="#335AFF"/>
<path d="M32.4016 30.5494L31.8135 32.1079L31.8429 29.9613L32.4016 30.5494Z" fill="#335AFF"/>
<path d="M32.364 29.4026L33.9012 29.9908L31.8428 29.9613L32.364 29.4026Z" fill="#335AFF"/>
<path d="M31.2547 29.4026L29.6668 29.9908L31.8428 29.9613L31.2547 29.4026Z" fill="#335AFF"/>
<path d="M31.2253 30.5788L29.6668 29.9907L31.8428 29.9613L31.2253 30.5788Z" fill="#335AFF"/>
<path d="M32.3722 29.4027L31.8135 27.903L31.8429 29.9614L32.3722 29.4027Z" fill="#335AFF"/>
<path d="M39.9957 20.3344L41.7531 25.0185L46.5022 26.7517L41.7531 28.485L39.9957 33.1691L38.2384 28.485L33.4893 26.7517L38.2384 25.0185L39.9957 20.3344Z" fill="#8DA3FF"/>
<path d="M41.7787 28.445L39.9961 33.1689L40.0852 26.6624L41.7787 28.445Z" fill="#8DA3FF"/>
<path d="M41.6649 24.9691L46.3241 26.7517L40.085 26.6625L41.6649 24.9691Z" fill="#8DA3FF"/>
<path d="M38.3024 24.9691L33.4893 26.7517L40.085 26.6625L38.3024 24.9691Z" fill="#8DA3FF"/>
<path d="M38.2132 28.5341L33.4893 26.7515L40.085 26.6624L38.2132 28.5341Z" fill="#8DA3FF"/>
<path d="M41.6896 24.9692L39.9961 20.4236L40.0852 26.6627L41.6896 24.9692Z" fill="#8DA3FF"/>
</g>
<defs>
<clipPath id="clip0_2191_834">
<rect width="46" height="46" fill="white" transform="translate(0.5)"/>
</clipPath>
</defs>
</svg>
