<svg width="67" height="51" viewBox="0 0 67 51" fill="none" xmlns="http://www.w3.org/2000/svg">
<path d="M33.1075 4.26452V46.79H43.2321V4.26452H33.1075ZM47.1697 50.7276H29.1699V4.26452C29.1699 2.22552 30.7198 0.549389 32.7057 0.348054L33.1075 0.326904H43.2321C45.4068 0.326904 47.1697 2.08983 47.1697 4.26452V50.7276Z" fill="#5F7EFF"/>
<path d="M43.2068 24.8019L48.4537 26.7169L43.2068 28.6318L41.2649 33.8077L39.3231 28.6318L34.0762 26.7169L39.3231 24.8019L41.2649 19.6261L43.2068 24.8019Z" fill="#5F7EFF"/>
<path d="M40.064 41.4834L43.0537 42.5735L40.064 43.6637L38.9585 46.6111L37.853 43.6637L34.8652 42.5735L37.853 41.4834L38.9585 38.5359L40.064 41.4834Z" fill="#5F7EFF"/>
<path d="M57.9123 33.0919L66.9699 36.3969L57.9123 39.7039L54.5611 48.6365L51.2099 39.7039L42.1523 36.3969L51.2099 33.0919L54.5611 24.1592L57.9123 33.0919Z" fill="#5F7EFF"/>
<path d="M18.5372 18.6653V46.7903H26.8623V18.6653H18.5372ZM30.8 50.728H14.5996V18.6653C14.5996 16.4906 16.3625 14.7277 18.5372 14.7277H26.8623C29.037 14.7277 30.8 16.4906 30.8 18.6653V50.728Z" fill="#5F7EFF"/>
<path d="M3.96881 31.264V46.7895H12.2938V31.264H3.96881ZM16.2314 50.7271H0.03125V31.264C0.0312525 29.0893 1.79416 27.3264 3.96881 27.3264H12.2938C14.4685 27.3264 16.2314 29.0893 16.2314 31.264V50.7271Z" fill="#5F7EFF"/>
</svg>
