<svg width="56" height="48" viewBox="0 0 56 48" fill="none" xmlns="http://www.w3.org/2000/svg">
<path d="M38.8557 0.0274048C39.8761 0.0274048 40.7033 0.863757 40.7033 1.89545V29.9161C40.7033 30.9478 39.8761 31.7842 38.8557 31.7842H1.90235C0.881916 31.7842 0.0546875 30.9478 0.0546875 29.9161V1.89545C0.0546875 0.863757 0.881916 0.0274048 1.90235 0.0274048H38.8557ZM3.75002 28.0481H37.008V3.76349H3.75002V28.0481Z" fill="#2EE0A2"/>
<path d="M44.6736 33.8166V13.3229C44.6736 12.294 45.4911 11.4598 46.4996 11.4598C47.5081 11.4598 48.3256 12.294 48.3256 13.3229V33.8166C48.3256 36.9034 45.873 39.4058 42.8475 39.4058H20.9354C19.9269 39.4058 19.1094 38.5717 19.1094 37.5427C19.1094 36.5138 19.9269 35.6797 20.9354 35.6797H42.8475C43.856 35.6797 44.6736 34.8455 44.6736 33.8166Z" fill="#2EE0A2"/>
<path d="M52.2947 39.5752V20.9445C52.2947 19.9156 53.1122 19.0815 54.1207 19.0815C55.1292 19.0815 55.9467 19.9156 55.9467 20.9445V39.5752C55.9467 43.6909 52.6765 47.0274 48.6426 47.0274H28.5565C27.548 47.0274 26.7305 46.1933 26.7305 45.1644C26.7305 44.1354 27.548 43.3013 28.5565 43.3013H48.6426C50.6596 43.3013 52.2947 41.6331 52.2947 39.5752Z" fill="#2EE0A2"/>
</svg>
