<svg width="47" height="46" viewBox="0 0 47 46" fill="none" xmlns="http://www.w3.org/2000/svg">
<g clip-path="url(#clip0_2191_796)">
<rect x="4.2168" y="20.5799" width="30.202" height="19.9798" rx="5" fill="#5F7EFF"/>
<rect x="23.2676" y="20.5799" width="4.64646" height="19.9798" rx="2.32323" fill="#5F7EFF"/>
<rect x="13.5098" y="20.5799" width="5.11111" height="19.9798" rx="2.55556" fill="#5F7EFF"/>
<rect x="33.0254" y="20.5799" width="4.64646" height="19.9798" rx="2.32323" fill="#5F7EFF"/>
<rect x="0.5" y="23.8324" width="6.50505" height="40.4242" rx="3.25252" transform="rotate(-90 0.5 23.8324)" fill="#5F7EFF"/>
<rect x="0.5" y="42.8829" width="4.64646" height="40.8889" rx="2.32323" transform="rotate(-90 0.5 42.8829)" fill="#5F7EFF"/>
<path d="M16.8633 8.24449L2.3584 17.792H39.0655L24.5606 8.24449C22.2251 6.70719 19.1988 6.70719 16.8633 8.24449Z" fill="#5F7EFF"/>
<rect x="6.0625" y="19.0071" width="4.80228" height="19.8094" rx="2.40114" fill="#D9E4F1"/>
<rect x="25.2461" y="19.0071" width="4.80228" height="19.8094" rx="2.40114" fill="#D9E4F1"/>
<rect x="15.6416" y="19.0071" width="4.80228" height="19.8094" rx="2.40114" fill="#D9E4F1"/>
<rect x="34.8516" y="19.0071" width="4.80228" height="19.8094" rx="2.40114" fill="#D9E4F1"/>
<rect x="2.43555" y="22.3087" width="6.60313" height="40.2191" rx="3.30157" transform="rotate(-90 2.43555 22.3087)" fill="#D9E4F1"/>
<rect x="2.43555" y="41.2177" width="4.80228" height="40.8194" rx="2.40114" transform="rotate(-90 2.43555 41.2177)" fill="#D9E4F1"/>
<path d="M18.7065 6.51705L4.23633 16.0057H40.8537L26.3835 6.51705C24.0528 4.98866 21.0373 4.98866 18.7065 6.51705Z" fill="#D9E4F1"/>
<path d="M34.7517 17.8662C34.7517 19.4353 33.4796 20.7073 31.9105 20.7073C30.3414 20.7073 29.0693 19.4353 29.0693 17.8662C29.0693 16.297 30.3414 15.025 31.9105 15.025C33.4796 15.025 34.7517 16.297 34.7517 17.8662ZM29.8679 17.8662C29.8679 18.9942 30.7824 19.9087 31.9105 19.9087C33.0386 19.9087 33.9531 18.9942 33.9531 17.8662C33.9531 16.7381 33.0386 15.8236 31.9105 15.8236C30.7824 15.8236 29.8679 16.7381 29.8679 17.8662Z" fill="#5F7EFF"/>
<path d="M30.6514 15.4351C30.6514 14.7557 31.2021 14.2049 31.8816 14.2049C32.561 14.2049 33.1118 14.7557 33.1118 15.4351H30.6514Z" fill="#5F7EFF"/>
<path d="M34.3421 16.636C35.0215 16.636 35.5723 17.1868 35.5723 17.8662C35.5723 18.5456 35.0215 19.0964 34.3421 19.0964L34.3421 16.636Z" fill="#5F7EFF"/>
<path d="M34.4729 18.6886C34.9533 19.169 34.9533 19.9479 34.4729 20.4284C33.9925 20.9088 33.2136 20.9088 32.7331 20.4284L34.4729 18.6886Z" fill="#5F7EFF"/>
<path d="M32.7336 15.2505C33.2141 14.7701 33.993 14.7701 34.4734 15.2505C34.9538 15.7309 34.9538 16.5098 34.4734 16.9903L32.7336 15.2505Z" fill="#5F7EFF"/>
<path d="M33.1113 20.2972C33.1113 20.9767 32.5606 21.5274 31.8811 21.5274C31.2017 21.5274 30.6509 20.9767 30.6509 20.2972L33.1113 20.2972Z" fill="#5F7EFF"/>
<path d="M29.4802 19.0964C28.8008 19.0964 28.25 18.5456 28.25 17.8662C28.25 17.1868 28.8008 16.636 29.4802 16.636L29.4802 19.0964Z" fill="#5F7EFF"/>
<path d="M29.2957 16.9903C28.8152 16.5099 28.8152 15.731 29.2957 15.2505C29.7761 14.7701 30.555 14.7701 31.0354 15.2505L29.2957 16.9903Z" fill="#5F7EFF"/>
<path d="M31.0359 20.4284C30.5555 20.9088 29.7766 20.9088 29.2961 20.4284C28.8157 19.9479 28.8157 19.169 29.2961 18.6886L31.0359 20.4284Z" fill="#5F7EFF"/>
<path d="M45.2621 11.9248C45.2621 14.292 43.343 16.2111 40.9758 16.2111C38.6085 16.2111 36.6895 14.292 36.6895 11.9248C36.6895 9.55751 38.6085 7.63846 40.9758 7.63846C43.343 7.63846 45.2621 9.55751 45.2621 11.9248ZM37.8943 11.9248C37.8943 13.6266 39.2739 15.0063 40.9758 15.0063C42.6776 15.0063 44.0573 13.6266 44.0573 11.9248C44.0573 10.2229 42.6776 8.84328 40.9758 8.84328C39.2739 8.84328 37.8943 10.2229 37.8943 11.9248Z" fill="#8DA3FF"/>
<path d="M39.0762 8.25705C39.0762 7.23205 39.9071 6.40112 40.9321 6.40112C41.9571 6.40112 42.788 7.23205 42.788 8.25705H39.0762Z" fill="#8DA3FF"/>
<path d="M44.645 10.0688C45.67 10.0688 46.501 10.8997 46.501 11.9247C46.501 12.9498 45.67 13.7807 44.645 13.7807L44.645 10.0688Z" fill="#8DA3FF"/>
<path d="M44.842 13.1655C45.5667 13.8903 45.5667 15.0654 44.842 15.7902C44.1172 16.515 42.9421 16.515 42.2173 15.7902L44.842 13.1655Z" fill="#8DA3FF"/>
<path d="M42.217 7.9786C42.9417 7.25382 44.1169 7.25382 44.8416 7.9786C45.5664 8.70339 45.5664 9.8785 44.8416 10.6033L42.217 7.9786Z" fill="#8DA3FF"/>
<path d="M42.7871 15.5924C42.7871 16.6174 41.9562 17.4483 40.9312 17.4483C39.9062 17.4483 39.0752 16.6174 39.0752 15.5924L42.7871 15.5924Z" fill="#8DA3FF"/>
<path d="M37.3091 13.7807C36.2841 13.7807 35.4531 12.9498 35.4531 11.9248C35.4531 10.8998 36.2841 10.0689 37.3091 10.0689L37.3091 13.7807Z" fill="#8DA3FF"/>
<path d="M37.0301 10.6034C36.3053 9.87857 36.3053 8.70346 37.0301 7.97867C37.7549 7.25389 38.93 7.25389 39.6548 7.97867L37.0301 10.6034Z" fill="#8DA3FF"/>
<path d="M39.6561 15.7902C38.9313 16.515 37.7562 16.515 37.0314 15.7902C36.3066 15.0654 36.3066 13.8903 37.0314 13.1655L39.6561 15.7902Z" fill="#8DA3FF"/>
</g>
<defs>
<clipPath id="clip0_2191_796">
<rect width="46" height="46" fill="white" transform="translate(0.5)"/>
</clipPath>
</defs>
</svg>
