<svg width="46" height="47" viewBox="0 0 46 47" fill="none" xmlns="http://www.w3.org/2000/svg">
<g clip-path="url(#clip0_2127_1665)">
<path d="M45.6869 0.543884H0.105469V35.5249H11.6066L6.69108 43.7177L9.41959 45.3532L15.316 35.5249H30.4746L36.371 45.3532L39.0995 43.7177L34.184 35.5249H45.6869V0.543884ZM42.5072 32.3443H3.28523V3.72365H42.5063V32.3443H42.5072Z" fill="#4BE8FF"/>
<path d="M12.2967 18.5642C15.512 18.5642 18.1265 15.9496 18.1265 12.7343C18.1265 9.51897 15.512 6.9035 12.2967 6.9035C9.08135 6.9035 6.4668 9.51806 6.4668 12.7334C6.4668 15.9487 9.08135 18.5642 12.2967 18.5642ZM12.2967 10.0842C13.758 10.0842 14.9468 11.2729 14.9468 12.7343C14.9468 14.1956 13.758 15.3844 12.2967 15.3844C10.8353 15.3844 9.64656 14.1956 9.64656 12.7343C9.64656 11.2729 10.8353 10.0842 12.2967 10.0842Z" fill="#4BE8FF"/>
<path d="M30.3809 17.9697L28.1328 20.2187L31.2488 23.3347L28.1328 26.4506L30.3809 28.6987L33.4968 25.5827L36.6128 28.6987L38.8609 26.4506L35.7449 23.3347L38.8609 20.2187L36.6128 17.9697L33.4968 21.0857L30.3809 17.9697Z" fill="#4BE8FF"/>
<path d="M11.1719 26.4507L13.42 28.6987L29.7864 12.3323V14.4919H32.9671V6.9035H25.3805V10.0842H27.5384L11.1719 26.4507Z" fill="#4BE8FF"/>
</g>
<defs>
<clipPath id="clip0_2127_1665">
<rect width="46" height="46" fill="white" transform="translate(0 0.527344)"/>
</clipPath>
</defs>
</svg>
