<svg width="47" height="46" viewBox="0 0 47 46" fill="none" xmlns="http://www.w3.org/2000/svg">
<g clip-path="url(#clip0_2191_900)">
<circle cx="22.0524" cy="32.7095" r="3.01922" fill="#5F7EFF"/>
<path d="M20.7054 28.0343C19.9759 29.211 20.8221 30.7314 22.2066 30.7314C23.5664 30.7314 24.4162 29.2595 23.7364 28.0819C23.0688 26.9256 21.409 26.8995 20.7054 28.0343Z" fill="#5F7EFF"/>
<circle cx="24.1335" cy="31.2519" r="3.01922" fill="#D9E4F1"/>
<path d="M22.7865 26.5767C22.0569 27.7534 22.9032 29.2738 24.2877 29.2738C25.6474 29.2738 26.4973 27.8018 25.8174 26.6243C25.1498 25.4679 23.49 25.4419 22.7865 26.5767Z" fill="#D9E4F1"/>
<path d="M22.0315 21.1401C13.3338 21.926 9.55565 27.6587 8.24846 32.2515C7.70957 34.1448 6.11316 35.7287 4.14458 35.7287C2.13174 35.7287 0.485068 34.0905 0.808695 32.1039C2.0514 24.4753 7.34698 13.8983 22.0315 13.8983C36.656 13.8983 42.0681 24.3889 43.4115 32.0101C43.7692 34.0397 42.0899 35.7287 40.0291 35.7287C38.1347 35.7287 36.5886 34.2814 36.0934 32.4528C33.6686 23.4979 25.9588 21.1401 22.0315 21.1401Z" fill="#5F7EFF"/>
<path d="M23.9807 19.8413C15.3197 20.6099 11.5368 26.1962 10.2143 30.6972C9.65946 32.5857 8.06314 34.1694 6.09482 34.1694C4.08141 34.1694 2.43403 32.5295 2.76881 30.5441C4.03137 23.0568 9.33873 12.7288 23.9807 12.7288C38.56 12.7288 43.9838 22.9684 45.3481 30.4477C45.7183 32.4769 44.0374 34.1694 41.9746 34.1694C40.0813 34.1694 38.5368 32.7235 38.0282 30.8998C35.5873 22.1479 27.9002 19.8413 23.9807 19.8413Z" fill="#D9E4F1"/>
<path d="M36.9787 23.6984C36.2432 22.8003 35.4002 21.9983 34.5768 21.3217C33.0365 20.056 32.2451 17.9504 32.9828 16.0983C33.6 14.5487 35.1629 13.4945 36.749 14.011C40.4131 15.204 43.164 18.2835 44.8396 21.2316C45.9992 23.2717 44.5745 25.5874 42.2746 26.0535C40.268 26.4602 38.2759 25.2824 36.9787 23.6984Z" fill="#9BAEFF"/>
<path d="M32.7005 17.0664L31.9985 16.8076C30.6872 16.3242 29.9059 14.9757 30.1386 13.5978C30.4496 11.7566 32.3918 10.6825 34.1165 11.398L34.8077 11.6847C36.5713 12.4162 37.1536 14.6263 35.9795 16.1319C35.2062 17.1235 33.8804 17.5014 32.7005 17.0664Z" fill="#335AFF"/>
</g>
<defs>
<clipPath id="clip0_2191_900">
<rect width="46" height="46" fill="white" transform="translate(0.5)"/>
</clipPath>
</defs>
</svg>
