<svg width="45" height="44" viewBox="0 0 45 44" fill="none" xmlns="http://www.w3.org/2000/svg">
<path d="M0.75 2.27375C0.75 1.18175 1.63524 0.296509 2.72724 0.296509C3.81924 0.296509 4.70449 1.18175 4.70449 2.27375V39.1501H42.2721C43.3638 39.1501 44.2489 40.0358 44.2494 41.1274C44.2494 42.2194 43.3641 43.1046 42.2721 43.1046H2.72724C1.63524 43.1046 0.75 42.2194 0.75 41.1274V2.27375Z" fill="#4BE8FF"/>
<path d="M40.7399 8.51566C41.4297 7.66941 42.6759 7.54213 43.5223 8.23182C44.3684 8.9216 44.4956 10.1678 43.8061 11.0142L30.7282 27.062C30.3445 27.5329 29.7656 27.8013 29.1583 27.7899C28.5513 27.7784 27.9832 27.4888 27.6175 27.004L20.6237 17.7357L11.255 32.6442C10.6738 33.5684 9.45292 33.8468 8.52857 33.266C7.60427 32.6848 7.32601 31.4639 7.90682 30.5395L18.8048 13.2058L18.9458 13.0089C19.3002 12.5742 19.826 12.307 20.394 12.2828C21.0434 12.2552 21.665 12.5498 22.0565 13.0687L29.2549 22.6093L40.7399 8.51566Z" fill="#4BE8FF"/>
</svg>
