<svg width="51" height="47" viewBox="0 0 51 47" fill="none" xmlns="http://www.w3.org/2000/svg">
<g clip-path="url(#clip0_2127_1672)">
<path d="M17.2278 30.7147L14.5296 38.9429L14.4414 45.9403H20.7792V42.427H17.8987V39.785L19.7209 34.229H31.0549L32.8771 39.785V42.427H29.9966V45.9403H36.3344V39.4989L33.548 30.7147H17.2278Z" fill="#2EE0A2"/>
<path d="M25.3876 27.2013C28.8825 27.2013 31.7244 24.3125 31.7244 20.7599C31.7244 17.2074 28.8825 14.3185 25.3876 14.3185C21.8927 14.3185 19.0508 17.2074 19.0508 20.7599C19.0508 24.3125 21.8927 27.2013 25.3876 27.2013ZM25.3876 17.8308C26.976 17.8308 28.2681 19.1443 28.2681 20.7589C28.2681 22.3736 26.976 23.687 25.3876 23.687C23.7992 23.687 22.507 22.3736 22.507 20.7589C22.507 19.1443 23.7992 17.8308 25.3876 17.8308Z" fill="#2EE0A2"/>
<path d="M4.0715 25.7298L5.89476 20.1738H16.1704V16.6605H3.40165L0.703425 24.8887L0.615234 31.8861H6.95205V28.3728H4.0715V25.7298Z" fill="#2EE0A2"/>
<path d="M11.5624 13.1461C15.0573 13.1461 17.8992 10.2573 17.8992 6.70471C17.8992 3.15212 15.0573 0.263306 11.5624 0.263306C8.06751 0.263306 5.22461 3.15211 5.22461 6.70471C5.22461 10.2573 8.06751 13.1461 11.5624 13.1461ZM11.5624 3.77661C13.1508 3.77661 14.443 5.09008 14.443 6.70471C14.443 8.31934 13.1508 9.6328 11.5624 9.6328C9.974 9.6328 8.68187 8.31934 8.68187 6.70471C8.68187 5.09008 9.97301 3.77661 11.5624 3.77661Z" fill="#2EE0A2"/>
<path d="M47.3742 16.6605H34.6055V20.1738H44.8811L46.7044 25.7298V28.3728H43.8238V31.8861H50.1606V25.4447L47.3742 16.6605Z" fill="#2EE0A2"/>
<path d="M39.2138 13.1461C42.7087 13.1461 45.5506 10.2573 45.5506 6.70471C45.5506 3.15212 42.7087 0.263306 39.2138 0.263306C35.7189 0.263306 32.877 3.15212 32.877 6.70471C32.877 10.2573 35.7199 13.1461 39.2138 13.1461ZM39.2138 3.77661C40.8022 3.77661 42.0943 5.09008 42.0943 6.70471C42.0943 8.31934 40.8022 9.6328 39.2138 9.6328C37.6254 9.6328 36.3332 8.31934 36.3332 6.70471C36.3332 5.09008 37.6254 3.77661 39.2138 3.77661Z" fill="#2EE0A2"/>
</g>
<defs>
<clipPath id="clip0_2127_1672">
<rect width="50" height="46" fill="white" transform="translate(0.5 0.200562)"/>
</clipPath>
</defs>
</svg>
