<svg width="47" height="46" viewBox="0 0 47 46" fill="none" xmlns="http://www.w3.org/2000/svg">
<ellipse cx="18.273" cy="14.1364" rx="11.1363" ry="11.1364" fill="#5F7EFF"/>
<ellipse cx="20.9995" cy="14.1364" rx="11.1363" ry="11.1364" fill="#D9E4F1"/>
<path d="M3.5 36.5228C3.5 30.3096 8.53682 25.2728 14.7501 25.2728H18.1588C24.372 25.2728 29.4088 30.3096 29.4088 36.5228C29.4088 38.5939 27.7299 40.2728 25.6588 40.2728H7.25002C5.17894 40.2728 3.5 38.5939 3.5 36.5228Z" fill="#5F7EFF"/>
<path d="M8.5 36.5228C8.5 30.3096 13.5368 25.2728 19.7501 25.2728H23.1588C29.372 25.2728 34.4088 30.3096 34.4088 36.5228C34.4088 38.5939 32.7299 40.2728 30.6588 40.2728H12.25C10.1789 40.2728 8.5 38.5939 8.5 36.5228Z" fill="#D9E4F1"/>
<ellipse cx="35.544" cy="28.682" rx="6.59084" ry="6.59094" fill="#8DA3FF"/>
<path d="M27.5908 41.7501C27.5908 38.1728 30.4908 35.2728 34.0681 35.2728H37.0224C40.5998 35.2728 43.4997 38.1728 43.4997 41.7501C43.4997 42.9425 42.5331 43.9092 41.3406 43.9092H29.7499C28.5575 43.9092 27.5908 42.9425 27.5908 41.7501Z" fill="#335AFF"/>
</svg>
