<svg width="47" height="49" viewBox="0 0 47 49" fill="none" xmlns="http://www.w3.org/2000/svg">
<path d="M41.1855 5.72791H5.8125V24.3148C5.81255 29.8321 7.58352 34.6808 10.6338 38.1166C13.6571 41.5218 18.0492 43.6732 23.6279 43.6732C34.4158 43.6731 41.1854 34.4055 41.1855 24.3148V5.72791ZM46.1855 24.3148C46.1854 36.3392 37.9379 48.6731 23.6279 48.6732C16.6576 48.6732 10.8915 45.938 6.89453 41.4359C2.92457 36.9642 0.81255 30.8836 0.8125 24.3148V0.727905H46.1855V24.3148Z" fill="#4BE8FF"/>
<path d="M24.7988 20.4575C24.7988 19.8104 24.274 19.2857 23.627 19.2856C22.9798 19.2856 22.4551 19.8103 22.4551 20.4575C22.4552 21.1045 22.9799 21.6293 23.627 21.6293V26.6293L23.3096 26.6205C20.1536 26.4607 17.6228 23.9307 17.4629 20.7748L17.4551 20.4575C17.4551 17.0489 20.2184 14.2856 23.627 14.2856L23.9443 14.2934C27.2053 14.4587 29.7988 17.1554 29.7988 20.4575L29.79 20.7748C29.6248 24.0357 26.9289 26.6292 23.627 26.6293V21.6293C24.2739 21.6292 24.7987 21.1044 24.7988 20.4575Z" fill="#4BE8FF"/>
<path d="M21.127 34.8578L21.127 26.1147C21.127 24.734 22.2462 23.6147 23.627 23.6147C25.0077 23.6147 26.127 24.734 26.127 26.1147L26.127 34.8578C26.127 36.2386 25.0077 37.3578 23.627 37.3578C22.2462 37.3578 21.127 36.2386 21.127 34.8578Z" fill="#4BE8FF"/>
</svg>
