<svg width="47" height="46" viewBox="0 0 47 46" fill="none" xmlns="http://www.w3.org/2000/svg">
<g clip-path="url(#clip0_2191_883)">
<path d="M19.695 3.25379L5.25263 9.85663C4.18487 10.3448 3.5 11.411 3.5 12.585V29.507C3.99134 35.0047 8.15788 46 20.8933 46C33.4332 46 38.618 35.3399 39.7124 29.7642C39.7465 29.5905 39.7607 29.418 39.7607 29.241V12.6491C39.7607 11.4424 39.0378 10.3532 37.9258 9.88458L22.1075 3.21767C21.3337 2.89155 20.4587 2.90465 19.695 3.25379Z" fill="#5F7EFF"/>
<path d="M24.0098 0.56042L9.56692 7.24604C8.50612 7.73708 7.82715 8.79957 7.82715 9.9685V27.1361C8.31849 32.7025 12.485 43.8353 25.2205 43.8353C37.765 43.8353 42.9491 33.0338 44.0408 27.3902C44.074 27.2185 44.0878 27.0482 44.0878 26.8733V10.0329C44.0878 8.83113 43.3707 7.74533 42.2653 7.27364L26.4475 0.52362C25.6664 0.190277 24.7805 0.20365 24.0098 0.56042Z" fill="#D9E4F1"/>
<rect x="15.9482" y="16.7764" width="19.4834" height="16.7765" rx="5" fill="#5F7EFF"/>
<path d="M20.2783 17.3178C20.3735 15.3695 21.3066 10.8237 25.4198 10.8237C29.5329 10.8237 30.5612 15.0448 30.5612 17.3178" stroke="#5F7EFF" stroke-width="5" stroke-linecap="round"/>
<ellipse cx="25.9589" cy="21.9177" rx="2.43542" ry="2.43529" fill="#8DA3FF"/>
<rect x="24.6064" y="22.1882" width="2.70602" height="5.41176" rx="1.35301" fill="#8DA3FF"/>
</g>
<defs>
<clipPath id="clip0_2191_883">
<rect width="46" height="46" fill="white" transform="translate(0.5)"/>
</clipPath>
</defs>
</svg>
