<svg width="89" height="70" viewBox="0 0 89 70" fill="none" xmlns="http://www.w3.org/2000/svg">
<rect y="5.87549" width="72.4017" height="58.2857" rx="5" fill="#5F7EFF"/>
<rect x="6.9248" width="72.4017" height="58.2857" rx="5" fill="#D9E4F1"/>
<rect x="64.501" y="29.9287" width="23.6785" height="40.0714" rx="5" fill="#5F7EFF"/>
<path d="M59.0807 31.2425C59.0807 34.2946 58.1757 37.2781 56.48 39.8158C54.7844 42.3535 52.3743 44.3314 49.5546 45.4993C46.7349 46.6673 43.6321 46.9729 40.6387 46.3775C37.6453 45.782 34.8957 44.3123 32.7375 42.1542C30.5794 39.9961 29.1097 37.2464 28.5143 34.253C27.9189 31.2596 28.2245 28.1569 29.3924 25.3371C30.5604 22.5174 32.5383 20.1073 35.076 18.4117C37.6137 16.7161 40.5972 15.811 43.6492 15.811L43.6492 31.2425L59.0807 31.2425Z" fill="#5F7EFF"/>
<path d="M83.7709 50.2011C83.7709 51.5963 83.3572 52.9602 82.582 54.1203C81.8069 55.2804 80.7051 56.1846 79.4161 56.7185C78.1271 57.2524 76.7087 57.3921 75.3403 57.12C73.9718 56.8478 72.7149 56.1759 71.7283 55.1893C70.7417 54.2027 70.0699 52.9458 69.7977 51.5774C69.5255 50.2089 69.6652 48.7905 70.1991 47.5015C70.733 46.2125 71.6372 45.1108 72.7973 44.3356C73.9574 43.5605 75.3213 43.1467 76.7165 43.1467L76.7165 50.2011H83.7709Z" fill="#D9E4F1"/>
<path d="M78.039 39.6196C80.4946 39.6196 82.8496 40.5487 84.586 42.2024C86.3224 43.856 87.2979 46.0989 87.2979 48.4376L78.039 48.4376L78.039 39.6196Z" fill="#8DA3FF"/>
<path d="M47.617 9.63843C52.7621 9.63843 57.6965 11.5894 61.3346 15.0622C64.9727 18.5349 67.0166 23.245 67.0166 28.1562L47.617 28.1562L47.617 9.63843Z" fill="#8DA3FF"/>
</svg>
