<svg width="84" height="70" viewBox="0 0 84 70" fill="none" xmlns="http://www.w3.org/2000/svg">
<circle cx="32.1362" cy="38.0434" r="31.9565" fill="#5F7EFF"/>
<circle cx="38.2231" cy="31.9565" r="31.9565" fill="#D9E4F1"/>
<path d="M67.2617 31.4495H60.6027C57.8413 31.4495 55.6027 33.688 55.6027 36.4495V42.3618C55.6027 44.224 54.0932 45.7335 52.231 45.7335C49.0627 45.7335 47.6437 49.7076 50.0955 51.7144L61.516 61.0616C63.4964 62.6825 66.3812 62.5463 68.2001 60.746L77.7744 51.2697C79.8292 49.2359 78.389 45.7335 75.4979 45.7335C73.7106 45.7335 72.2617 44.2846 72.2617 42.4974V36.4495C72.2617 33.688 70.0232 31.4495 67.2617 31.4495Z" fill="#8DA3FF"/>
<path d="M37.8006 49.7103V15.2175H39.9173V49.7103H37.8006ZM43.9056 26.2525C43.7851 25.0758 43.2775 24.1596 42.3826 23.5039C41.4963 22.8481 40.3433 22.5203 38.9235 22.5203C37.9253 22.5203 37.0692 22.6775 36.355 22.9919C35.6408 23.3063 35.0944 23.7329 34.7158 24.2719C34.3372 24.8108 34.1436 25.4261 34.135 26.1178C34.135 26.6926 34.2597 27.1912 34.5093 27.6134C34.7674 28.0355 35.1159 28.3948 35.5548 28.6913C35.9936 28.9787 36.4798 29.2212 37.0132 29.4188C37.5467 29.6164 38.0845 29.7826 38.6266 29.9174L41.1048 30.5641C42.1029 30.8066 43.0623 31.1345 43.983 31.5477C44.9123 31.9609 45.7427 32.4819 46.4741 33.1106C47.2141 33.7394 47.7992 34.4984 48.2294 35.3877C48.6597 36.277 48.8748 37.3189 48.8748 38.5136C48.8748 40.1304 48.479 41.5542 47.6874 42.7848C46.8957 44.0064 45.7513 44.963 44.2541 45.6547C42.7655 46.3373 40.9628 46.6787 38.846 46.6787C36.7895 46.6787 35.0041 46.3463 33.4896 45.6816C31.9838 45.0169 30.805 44.0468 29.9531 42.7713C29.1098 41.4958 28.6538 39.9418 28.585 38.1094H33.296C33.3649 39.0705 33.6488 39.8699 34.1479 40.5077C34.647 41.1455 35.2966 41.6215 36.0968 41.9359C36.9057 42.2503 37.8092 42.4075 38.8073 42.4075C39.8485 42.4075 40.7606 42.2458 41.5436 41.9224C42.3352 41.5901 42.9548 41.132 43.4022 40.5481C43.8497 39.9553 44.0777 39.2636 44.0863 38.4732C44.0777 37.7546 43.8755 37.1617 43.4797 36.6946C43.0838 36.2186 42.5288 35.8233 41.8147 35.509C41.1091 35.1856 40.283 34.8981 39.3365 34.6466L36.3292 33.8382C34.1522 33.2544 32.4313 32.3696 31.1664 31.1839C29.9101 29.9892 29.2819 28.4038 29.2819 26.4277C29.2819 24.8018 29.7036 23.3781 30.5468 22.1565C31.3987 20.9349 32.556 19.9872 34.0188 19.3135C35.4816 18.6309 37.138 18.2895 38.988 18.2895C40.8638 18.2895 42.5073 18.6309 43.9185 19.3135C45.3383 19.9872 46.4526 20.9259 47.2614 22.1295C48.0703 23.3242 48.4876 24.6985 48.5134 26.2525H43.9056Z" fill="#5F7EFF"/>
</svg>
