<svg width="155" height="165" viewBox="0 0 155 165" fill="none" xmlns="http://www.w3.org/2000/svg">
<path d="M90.4236 7.96647C90.4236 3.74186 93.8383 0.317139 98.0506 0.317139H146.864C151.076 0.317139 154.491 3.74186 154.491 7.96647V156.363C154.491 160.588 151.076 164.013 146.864 164.013H98.0506C93.8383 164.013 90.4236 160.588 90.4236 156.363V7.96647Z" fill="#5F7EFF"/>
<path d="M46.1866 40.0937C46.1866 35.869 49.6014 32.4443 53.8137 32.4443H101.101C105.314 32.4443 108.728 35.869 108.728 40.0937V156.363C108.728 160.588 105.314 164.013 101.101 164.013H53.8137C49.6014 164.013 46.1866 160.588 46.1866 156.363V40.0937Z" fill="#26B7FF"/>
<path d="M0.424316 61.5118C0.424316 57.2872 3.83907 53.8624 8.05137 53.8624H56.8645C61.0768 53.8624 64.4916 57.2872 64.4916 61.5118V156.363C64.4916 160.588 61.0768 164.013 56.8645 164.013H8.05137C3.83907 164.013 0.424316 160.588 0.424316 156.363V61.5118Z" fill="#2EE0A2"/>
</svg>
