<svg width="46" height="33" viewBox="0 0 46 33" fill="none" xmlns="http://www.w3.org/2000/svg">
<rect x="13.7529" y="27.031" width="13.7529" height="5.21654" rx="2.60827" fill="#5F7EFF"/>
<rect y="2.37109" width="37.9389" height="23.7115" rx="5" fill="#5F7EFF"/>
<rect x="3.32031" width="37.9389" height="23.7115" rx="5" fill="#D9E4F1"/>
<rect x="15.6504" y="25.1343" width="13.7529" height="5.21654" rx="2.60827" fill="#D9E4F1"/>
<path d="M25.1723 8.0438C25.5752 7.52765 26.3201 7.43582 26.8363 7.83864C27.3525 8.24148 27.4443 8.98644 27.0415 9.50262L21.9731 15.9974C21.7629 16.2667 21.4467 16.4323 21.1056 16.4517C20.7646 16.4711 20.4317 16.3425 20.1924 16.0988L17.4127 13.2678L17.3321 13.177C16.9566 12.7078 16.9904 12.0209 17.4285 11.5908C17.8665 11.161 18.5535 11.1401 19.0156 11.5241L19.105 11.6066L20.9361 13.472L25.1723 8.0438Z" fill="#5F7EFF"/>
<rect x="33.1953" y="4.74219" width="12.8044" height="5.21654" rx="2.60827" fill="#335AFF"/>
<ellipse cx="35.8047" cy="7.35062" rx="1.18559" ry="1.18558" fill="#8DA3FF"/>
<ellipse cx="43.3916" cy="7.35062" rx="1.18559" ry="1.18558" fill="#8DA3FF"/>
<ellipse cx="39.5997" cy="7.35062" rx="1.18559" ry="1.18558" fill="#8DA3FF"/>
</svg>
