<svg width="46" height="46" viewBox="0 0 46 46" fill="none" xmlns="http://www.w3.org/2000/svg">
<circle cx="22.1479" cy="23.8518" r="9.08641" fill="#5F7EFF"/>
<ellipse cx="39.7522" cy="23.7098" rx="4.54321" ry="4.68518" fill="#5F7EFF"/>
<ellipse cx="22.1478" cy="41.4568" rx="4.54321" ry="4.68518" transform="rotate(90 22.1478 41.4568)" fill="#5F7EFF"/>
<ellipse cx="4.54321" cy="23.7098" rx="4.54321" ry="4.68518" fill="#5F7EFF"/>
<ellipse cx="22.1478" cy="6.24682" rx="4.54321" ry="4.68518" transform="rotate(90 22.1478 6.24682)" fill="#5F7EFF"/>
<circle cx="23.852" cy="22.1482" r="9.08641" fill="#D9E4F1"/>
<ellipse cx="41.4563" cy="22.0062" rx="4.54321" ry="4.68518" fill="#D9E4F1"/>
<ellipse cx="23.8519" cy="39.7532" rx="4.54321" ry="4.68518" transform="rotate(90 23.8519 39.7532)" fill="#D9E4F1"/>
<ellipse cx="6.24731" cy="22.0062" rx="4.54321" ry="4.68518" fill="#D9E4F1"/>
<ellipse cx="23.8519" cy="4.54321" rx="4.54321" ry="4.68518" transform="rotate(90 23.8519 4.54321)" fill="#D9E4F1"/>
<path d="M27.6981 17.4076C28.1208 16.866 28.9025 16.7697 29.4441 17.1923C29.9856 17.615 30.082 18.3966 29.6593 18.9383L24.3413 25.7529C24.1208 26.0355 23.7891 26.2093 23.4312 26.2296C23.0733 26.25 22.7241 26.1151 22.4729 25.8593L19.5564 22.8889L19.4718 22.7936C19.0778 22.3014 19.1133 21.5806 19.5729 21.1293C20.0325 20.6783 20.7533 20.6564 21.2382 21.0593L21.332 21.1458L23.2533 23.1032L27.6981 17.4076Z" fill="#5F7EFF"/>
</svg>
