<svg width="46" height="47" viewBox="0 0 46 47" fill="none" xmlns="http://www.w3.org/2000/svg">
<path d="M15.5399 4.05771L2.92726 9.80319C1.1443 10.6154 0 12.3941 0 14.3533V30.0665C0.49523 35.5877 4.69478 46.6301 17.5311 46.6301C30.0391 46.6301 35.287 36.1454 36.4636 30.5007C36.5241 30.2109 36.5479 29.9176 36.5479 29.6216V14.4599C36.5479 12.4465 35.3403 10.6295 33.4839 9.84992L19.5486 3.99785C18.2625 3.45777 16.8093 3.47947 15.5399 4.05771Z" fill="#5F7EFF"/>
<path d="M19.9036 0.955596L7.28901 6.86853C5.53282 7.69173 4.41113 9.4563 4.41113 11.3958V27.696C4.90636 33.3773 9.10591 44.7397 21.9423 44.7397C34.4681 44.7397 39.713 33.9204 40.8798 28.1181C40.9365 27.8359 40.9591 27.5513 40.9591 27.2634V11.5038C40.9591 9.50905 39.7735 7.70518 37.9424 6.91395L24.0091 0.893102C22.6947 0.325163 21.2 0.347916 19.9036 0.955596Z" fill="#D9E4F1"/>
<path d="M30.2461 30.8357C30.2461 28.0743 32.4847 25.8357 35.2461 25.8357H40.9995C43.7609 25.8357 45.9995 28.0743 45.9995 30.8357V34.6987C45.9995 37.4601 43.7609 39.6987 40.9995 39.6987H35.2461C32.4847 39.6987 30.2461 37.4601 30.2461 34.6987V30.8357Z" fill="#5F7EFF"/>
<path d="M34.0273 25.8355C34.109 24.1342 34.9095 20.1643 38.4383 20.1643C41.9671 20.1643 42.8493 23.8506 42.8493 25.8355" stroke="#5F7EFF" stroke-width="3" stroke-linecap="round"/>
<ellipse cx="38.7533" cy="30.2466" rx="2.20548" ry="1.89041" fill="#8DA3FF"/>
<path d="M28.5 15.1416C29.0713 14.4079 30.1278 14.2774 30.8599 14.8499C31.5919 15.4226 31.7221 16.4815 31.1508 17.2153L23.9627 26.4474C23.6647 26.8302 23.2162 27.0656 22.7325 27.0932C22.2488 27.1207 21.7767 26.938 21.4373 26.5916L17.4951 22.5673L17.3808 22.4383C16.8482 21.7714 16.8962 20.7949 17.5175 20.1836C18.1387 19.5725 19.113 19.5429 19.7683 20.0888L19.8951 20.206L22.4921 22.8576L28.5 15.1416Z" fill="#5F7EFF"/>
<path d="M37 32.2603C37 31.5642 37.5642 31 38.2603 31C38.9563 31 39.5205 31.5642 39.5205 32.2603V34.7808C39.5205 35.4769 38.9563 36.0411 38.2603 36.0411C37.5642 36.0411 37 35.4769 37 34.7808V32.2603Z" fill="#8DA3FF"/>
</svg>
