<svg width="46" height="36" viewBox="0 0 46 36" fill="none" xmlns="http://www.w3.org/2000/svg">
<rect x="12.7236" y="1.46802" width="22.5106" height="8.80851" rx="4.40426" fill="#5F7EFF"/>
<rect y="1.46802" width="10.766" height="8.80851" rx="4.40426" fill="#5F7EFF"/>
<rect y="13.2126" width="10.766" height="9.29787" rx="4.64894" fill="#5F7EFF"/>
<rect y="25.4468" width="10.766" height="8.80851" rx="4.40426" fill="#5F7EFF"/>
<rect x="12.7236" y="13.2126" width="22.5106" height="9.29787" rx="4.64894" fill="#5F7EFF"/>
<rect x="12.7236" y="25.4468" width="22.5106" height="8.80851" rx="4.40426" fill="#5F7EFF"/>
<rect x="14.1904" width="22.5106" height="8.80851" rx="4.40426" fill="#D9E4F1"/>
<rect x="1.4668" width="10.766" height="8.80851" rx="4.40426" fill="#D9E4F1"/>
<rect x="1.4668" y="11.7446" width="10.766" height="9.29787" rx="4.64894" fill="#D9E4F1"/>
<rect x="1.4668" y="23.9788" width="10.766" height="8.80851" rx="4.40426" fill="#D9E4F1"/>
<rect x="14.1904" y="11.7446" width="22.5106" height="9.29787" rx="4.64894" fill="#D9E4F1"/>
<rect x="14.1904" y="23.9788" width="22.5106" height="8.80851" rx="4.40426" fill="#D9E4F1"/>
<circle cx="36.4576" cy="26.1807" r="9.54255" fill="#335AFF"/>
<path d="M39.5653 22.4493C39.9511 21.9649 40.6646 21.8788 41.1589 22.2568C41.6533 22.6348 41.7412 23.3338 41.3554 23.8181L36.5013 29.9123C36.3 30.165 35.9972 30.3204 35.6705 30.3386C35.3439 30.3568 35.0251 30.2362 34.7959 30.0075L32.1337 27.351L32.0565 27.2659C31.6969 26.8257 31.7293 26.1811 32.1488 25.7775C32.5683 25.3742 33.2263 25.3546 33.6688 25.7149L33.7544 25.7923L35.5082 27.5427L39.5653 22.4493Z" fill="#D9E4F1"/>
</svg>
