<svg width="50" height="46" viewBox="0 0 50 46" fill="none" xmlns="http://www.w3.org/2000/svg">
<circle cx="20.095" cy="25.905" r="20.095" fill="#5F7EFF"/>
<path d="M2.00977 44.3252L9.043 37.292L13.7318 44.3252H2.00977Z" fill="#5F7EFF"/>
<circle cx="24.1135" cy="23.2253" r="20.095" fill="#D9E4F1"/>
<path d="M6.02734 41.646L13.0606 34.6128L17.7494 41.646H6.02734Z" fill="#D9E4F1"/>
<path d="M34.3984 0L35.5715 3.12705L38.742 4.28416L35.5715 5.44127L34.3984 8.56832L33.2252 5.44127L30.0547 4.28416L33.2252 3.12705L34.3984 0Z" fill="#5F7EFF"/>
<path d="M35.5895 5.41465L34.3994 8.56827L34.4589 4.22461L35.5895 5.41465Z" fill="#5F7EFF"/>
<path d="M35.5137 3.09414L38.6241 4.28418L34.459 4.22468L35.5137 3.09414Z" fill="#5F7EFF"/>
<path d="M33.2689 3.09414L30.0558 4.28418L34.459 4.22468L33.2689 3.09414Z" fill="#5F7EFF"/>
<path d="M33.2094 5.47416L30.0558 4.28411L34.459 4.22461L33.2094 5.47416Z" fill="#5F7EFF"/>
<path d="M35.53 3.09418L34.3994 0.0595703L34.4589 4.22473L35.53 3.09418Z" fill="#5F7EFF"/>
<path d="M33.0028 11.4243L33.6708 13.205L35.4762 13.8639L33.6708 14.5228L33.0028 16.3035L32.3347 14.5228L30.5293 13.8639L32.3347 13.205L33.0028 11.4243Z" fill="#335AFF"/>
<path d="M33.6796 14.5077L33.002 16.3036L33.0358 13.8301L33.6796 14.5077Z" fill="#335AFF"/>
<path d="M33.6377 13.1861L35.4089 13.8638L33.0371 13.8299L33.6377 13.1861Z" fill="#335AFF"/>
<path d="M32.3594 13.1861L30.5298 13.8638L33.0371 13.8299L32.3594 13.1861Z" fill="#335AFF"/>
<path d="M32.3256 14.5416L30.5298 13.864L33.0371 13.8301L32.3256 14.5416Z" fill="#335AFF"/>
<path d="M33.6457 13.1861L33.002 11.458L33.0358 13.8298L33.6457 13.1861Z" fill="#335AFF"/>
<path d="M42.4319 2.73682L44.4568 8.13419L49.9291 10.1314L44.4568 12.1286L42.4319 17.526L40.4069 12.1286L34.9346 10.1314L40.4069 8.13419L42.4319 2.73682Z" fill="#8DA3FF"/>
<path d="M44.4867 12.0829L42.4326 17.5261L42.5353 10.0288L44.4867 12.0829Z" fill="#8DA3FF"/>
<path d="M44.3566 8.0773L49.7253 10.1313L42.5361 10.0286L44.3566 8.0773Z" fill="#8DA3FF"/>
<path d="M40.4821 8.0773L34.9361 10.1313L42.5361 10.0286L40.4821 8.0773Z" fill="#8DA3FF"/>
<path d="M40.3794 12.1856L34.9361 10.1315L42.5361 10.0288L40.3794 12.1856Z" fill="#8DA3FF"/>
<path d="M44.384 8.07767L42.4326 2.83984L42.5353 10.029L44.384 8.07767Z" fill="#8DA3FF"/>
<path d="M26.2979 24.4194C27.3669 25.7895 30.1158 28.7093 32.5593 29.4286" stroke="#5F7EFF" stroke-width="3" stroke-linecap="round" stroke-linejoin="round"/>
<path d="M25.0459 29.4288C27.3418 28.4621 31.9335 25.606 31.9335 21.915" stroke="#5F7EFF" stroke-width="3" stroke-linecap="round" stroke-linejoin="round"/>
<path d="M25.0459 21.915H33.812" stroke="#5F7EFF" stroke-width="3" stroke-linecap="round" stroke-linejoin="round"/>
<path d="M15.0273 24.4197L18.0915 14.4014L21.2888 24.4197" stroke="#335AFF" stroke-width="3" stroke-linecap="round" stroke-linejoin="round"/>
<path d="M29.4287 19.4106V21.9152" stroke="#5F7EFF" stroke-width="3" stroke-linecap="round" stroke-linejoin="round"/>
<path d="M16.2793 21.2891H20.0362" stroke="#335AFF" stroke-width="3" stroke-linecap="round" stroke-linejoin="round"/>
</svg>
