<svg width="48" height="46" viewBox="0 0 48 46" fill="none" xmlns="http://www.w3.org/2000/svg">
<circle cx="17.2499" cy="19.3413" r="17.2499" fill="#5F7EFF"/>
<rect x="10.9766" y="32.9321" width="12.0227" height="4.70453" fill="#5F7EFF"/>
<path d="M10.9766 37.6367H22.9993V37.864C22.9993 40.6254 20.7607 42.864 17.9993 42.864H15.9766C13.2151 42.864 10.9766 40.6254 10.9766 37.864V37.6367Z" fill="#5F7EFF"/>
<path d="M13.5918 42.8638H20.3872V42.8638C20.3872 44.5959 18.983 46.0001 17.2509 46.0001H16.7281C14.996 46.0001 13.5918 44.5959 13.5918 42.8638V42.8638Z" fill="#5F7EFF"/>
<circle cx="19.3417" cy="17.2499" r="17.2499" fill="#D9E4F1"/>
<rect x="13.0684" y="30.8408" width="12.0227" height="4.70453" fill="#D9E4F1"/>
<path d="M13.0684 35.5454H25.091V35.7727C25.091 38.5341 22.8525 40.7727 20.091 40.7727H18.0684C15.3069 40.7727 13.0684 38.5341 13.0684 35.7727V35.5454Z" fill="#D9E4F1"/>
<path d="M15.6816 40.7725H22.4771V40.7725C22.4771 42.5046 21.0729 43.9088 19.3407 43.9088H18.818C17.0858 43.9088 15.6816 42.5046 15.6816 40.7725V40.7725Z" fill="#D9E4F1"/>
<path d="M28.3658 9.75586L29.8352 13.6722L33.8059 15.1214L29.8352 16.5706L28.3658 20.487L26.8965 16.5706L22.9258 15.1214L26.8965 13.6722L28.3658 9.75586Z" fill="#5F7EFF"/>
<path d="M29.8547 16.5373L28.3643 20.4869L28.4388 15.0469L29.8547 16.5373Z" fill="#5F7EFF"/>
<path d="M29.7614 13.6307L33.6569 15.1211L28.4404 15.0466L29.7614 13.6307Z" fill="#5F7EFF"/>
<path d="M26.95 13.6307L22.9258 15.1211L28.4404 15.0466L26.95 13.6307Z" fill="#5F7EFF"/>
<path d="M26.8755 16.6118L22.9258 15.1214L28.4404 15.0469L26.8755 16.6118Z" fill="#5F7EFF"/>
<path d="M29.7802 13.6307L28.3643 9.83008L28.4388 15.0466L29.7802 13.6307Z" fill="#5F7EFF"/>
<path d="M26.6193 24.0635L27.456 26.2936L29.7171 27.1189L27.456 27.9441L26.6193 30.1742L25.7826 27.9441L23.5215 27.1189L25.7826 26.2936L26.6193 24.0635Z" fill="#335AFF"/>
<path d="M27.4669 27.9254L26.6182 30.1745L26.6606 27.0767L27.4669 27.9254Z" fill="#335AFF"/>
<path d="M27.4143 26.2704L29.6326 27.1191L26.6621 27.0767L27.4143 26.2704Z" fill="#335AFF"/>
<path d="M25.8134 26.2704L23.5219 27.1191L26.6621 27.0767L25.8134 26.2704Z" fill="#335AFF"/>
<path d="M25.771 27.9678L23.5219 27.1191L26.6621 27.0767L25.771 27.9678Z" fill="#335AFF"/>
<path d="M27.4244 26.2702L26.6182 24.106L26.6606 27.0765L27.4244 26.2702Z" fill="#335AFF"/>
<path d="M38.4268 13.1836L40.9629 19.9433L47.8165 22.4447L40.9629 24.946L38.4268 31.7058L35.8907 24.946L29.0371 22.4447L35.8907 19.9433L38.4268 13.1836Z" fill="#8DA3FF"/>
<path d="M40.9993 24.8884L38.4268 31.7056L38.5554 22.3159L40.9993 24.8884Z" fill="#8DA3FF"/>
<path d="M40.8367 19.8723L47.5605 22.4448L38.5566 22.3162L40.8367 19.8723Z" fill="#8DA3FF"/>
<path d="M35.9841 19.8723L29.0383 22.4448L38.5566 22.3162L35.9841 19.8723Z" fill="#8DA3FF"/>
<path d="M35.8555 25.0171L29.0383 22.4445L38.5566 22.3159L35.8555 25.0171Z" fill="#8DA3FF"/>
<path d="M40.8707 19.8724L38.4268 13.3125L38.5554 22.3163L40.8707 19.8724Z" fill="#8DA3FF"/>
</svg>
