<svg width="75" height="46" viewBox="0 0 75 46" fill="none" xmlns="http://www.w3.org/2000/svg">
<rect y="5.19336" width="57.871" height="40.8064" rx="5" fill="#5F7EFF"/>
<rect x="3.70996" width="58.6129" height="40.8064" rx="5" fill="#D9E4F1"/>
<rect x="8.64062" y="14" width="8.23751" height="23.2578" rx="4.11875" fill="#335AFF"/>
<rect x="17.7021" y="20.9771" width="8.23751" height="16.2804" rx="4.11875" fill="#335AFF"/>
<rect x="26.7627" y="25.6289" width="8.23751" height="11.6289" rx="4.11875" fill="#335AFF"/>
<path d="M53.9803 14.2563L55.5072 18.3261L59.6335 19.8321L55.5072 21.338L53.9803 25.4078L52.4534 21.338L48.3271 19.8321L52.4534 18.3261L53.9803 14.2563Z" fill="#5F7EFF"/>
<path d="M55.5273 21.3037L53.9785 25.4081L54.056 19.7549L55.5273 21.3037Z" fill="#5F7EFF"/>
<path d="M55.4313 18.2837L59.4794 19.8325L54.0586 19.7551L55.4313 18.2837Z" fill="#5F7EFF"/>
<path d="M52.5098 18.2837L48.328 19.8325L54.0586 19.7551L52.5098 18.2837Z" fill="#5F7EFF"/>
<path d="M52.4323 21.3811L48.328 19.8323L54.0586 19.7549L52.4323 21.3811Z" fill="#5F7EFF"/>
<path d="M55.4499 18.2835L53.9785 14.334L54.056 19.7548L55.4499 18.2835Z" fill="#5F7EFF"/>
<path d="M52.1655 29.125L53.0349 31.4425L55.3846 32.3001L53.0349 33.1576L52.1655 35.4751L51.296 33.1576L48.9463 32.3001L51.296 31.4425L52.1655 29.125Z" fill="#335AFF"/>
<path d="M53.046 33.1378L52.1641 35.475L52.2082 32.2559L53.046 33.1378Z" fill="#335AFF"/>
<path d="M52.9926 31.4178L55.2978 32.2998L52.2109 32.2557L52.9926 31.4178Z" fill="#335AFF"/>
<path d="M51.329 31.4178L48.9477 32.2998L52.2109 32.2557L51.329 31.4178Z" fill="#335AFF"/>
<path d="M51.2849 33.1819L48.9477 32.3L52.2109 32.2559L51.2849 33.1819Z" fill="#335AFF"/>
<path d="M53.0019 31.418L52.1641 29.1689L52.2082 32.2558L53.0019 31.418Z" fill="#335AFF"/>
<path d="M64.4362 17.8193L67.0717 24.8439L74.1938 27.4432L67.0717 30.0425L64.4362 37.0671L61.8008 30.0425L54.6787 27.4432L61.8008 24.8439L64.4362 17.8193Z" fill="#8DA3FF"/>
<path d="M67.1108 29.9824L64.4375 37.0666L64.5712 27.3091L67.1108 29.9824Z" fill="#8DA3FF"/>
<path d="M66.9406 24.7696L73.9278 27.4429L64.5713 27.3092L66.9406 24.7696Z" fill="#8DA3FF"/>
<path d="M61.898 24.7696L54.6801 27.4429L64.5713 27.3092L61.898 24.7696Z" fill="#8DA3FF"/>
<path d="M61.7643 30.116L54.6801 27.4427L64.5713 27.3091L61.7643 30.116Z" fill="#8DA3FF"/>
<path d="M66.9771 24.7695L64.4375 17.9526L64.5712 27.3092L66.9771 24.7695Z" fill="#8DA3FF"/>
</svg>
