<svg width="33" height="33" viewBox="0 0 33 33" fill="none" xmlns="http://www.w3.org/2000/svg">
<path d="M27.5 23.375V9.625C27.5 6.644 22.4634 4.125 16.5 4.125C10.5366 4.125 5.5 6.644 5.5 9.625V23.375C5.5 26.356 10.5366 28.875 16.5 28.875C22.4634 28.875 27.5 26.356 27.5 23.375ZM16.5 6.875C21.5751 6.875 24.6551 8.94712 24.75 9.61675C24.6551 10.3029 21.5751 12.375 16.5 12.375C11.4249 12.375 8.34488 10.3029 8.25 9.63325C8.34488 8.94712 11.4249 6.875 16.5 6.875ZM8.25 13.2096C10.2836 14.3743 13.2509 15.125 16.5 15.125C19.7491 15.125 22.7164 14.3743 24.75 13.2096V16.4918C24.6551 17.1779 21.5751 19.25 16.5 19.25C11.4249 19.25 8.34488 17.1779 8.25 16.5V13.2096ZM8.25 23.375V20.0846C10.2836 21.2493 13.2509 22 16.5 22C19.7491 22 22.7164 21.2493 24.75 20.0846V23.3667C24.6551 24.0529 21.5751 26.125 16.5 26.125C11.4249 26.125 8.34488 24.0529 8.25 23.375Z" fill="#5F7EFF"/>
</svg>
