<svg width="31" height="25" viewBox="0 0 31 25" fill="none" xmlns="http://www.w3.org/2000/svg">
<path d="M13.5693 7.92285L15.5078 9.49208V24.9998H13.5693V7.92285Z" fill="url(#paint0_linear_1949_753)" fill-opacity="0.8"/>
<path d="M6.73828 13.4614L8.49213 14.7999V24.9999H6.73828V13.4614Z" fill="url(#paint1_linear_1949_753)" fill-opacity="0.8"/>
<path d="M13.5693 2C13.5693 1.44772 14.0171 1 14.5693 1H19.677C20.2293 1 20.677 1.44772 20.677 2V25H13.5693V2Z" fill="#2745C3"/>
<path d="M13.5693 2C13.5693 1.44772 14.0171 1 14.5693 1H19.677C20.2293 1 20.677 1.44772 20.677 2V25H13.5693V2Z" fill="url(#paint2_linear_1949_753)" fill-opacity="0.2"/>
<path d="M6.73828 8.646C6.73828 8.09371 7.186 7.646 7.73828 7.646H12.846C13.3983 7.646 13.846 8.09371 13.846 8.646V24.9998H6.73828V8.646Z" fill="#4465ED"/>
<path d="M6.73828 8.646C6.73828 8.09371 7.186 7.646 7.73828 7.646H12.846C13.3983 7.646 13.846 8.09371 13.846 8.646V24.9998H6.73828V8.646Z" fill="url(#paint3_linear_1949_753)" fill-opacity="0.2"/>
<path d="M0 14.2769C0 13.7246 0.447715 13.2769 1 13.2769H6.10769C6.65998 13.2769 7.10769 13.7246 7.10769 14.2769V24.9999H0V14.2769Z" fill="#5F7EFF"/>
<path d="M0 14.2769C0 13.7246 0.447715 13.2769 1 13.2769H6.10769C6.65998 13.2769 7.10769 13.7246 7.10769 14.2769V24.9999H0V14.2769Z" fill="url(#paint4_linear_1949_753)"/>
<path d="M18.1383 0.0463867L19.0483 2.47193L21.5075 3.36946L19.0483 4.267L18.1383 6.69254L17.2283 4.267L14.769 3.36946L17.2283 2.47193L18.1383 0.0463867Z" fill="#2EE0A2"/>
<path d="M19.0617 4.24632L18.1387 6.69247L18.1848 3.32324L19.0617 4.24632Z" fill="url(#paint5_linear_1949_753)"/>
<path d="M19.0027 2.44606L21.4153 3.36914L18.1846 3.32299L19.0027 2.44606Z" fill="url(#paint6_linear_1949_753)"/>
<path d="M17.2615 2.44606L14.7692 3.36914L18.1846 3.32299L17.2615 2.44606Z" fill="url(#paint7_linear_1949_753)" fill-opacity="0.35"/>
<path d="M17.2153 4.29247L14.7692 3.3694L18.1846 3.32324L17.2153 4.29247Z" fill="url(#paint8_linear_1949_753)"/>
<path d="M19.0156 2.44613L18.1387 0.0922852L18.1848 3.32305L19.0156 2.44613Z" fill="url(#paint9_linear_1949_753)"/>
<path d="M17.0573 8.90771L17.5755 10.2889L18.9759 10.8L17.5755 11.3111L17.0573 12.6923L16.5391 11.3111L15.1387 10.8L16.5391 10.2889L17.0573 8.90771Z" fill="#2EE0A2"/>
<path d="M17.5828 11.2996L17.0571 12.6925L17.0834 10.7739L17.5828 11.2996Z" fill="url(#paint10_linear_1949_753)"/>
<path d="M17.5494 10.2742L18.9232 10.7998L17.0835 10.7735L17.5494 10.2742Z" fill="url(#paint11_linear_1949_753)"/>
<path d="M16.5579 10.2742L15.1386 10.7998L17.0835 10.7735L16.5579 10.2742Z" fill="url(#paint12_linear_1949_753)" fill-opacity="0.35"/>
<path d="M16.5316 11.3258L15.1386 10.8002L17.0835 10.7739L16.5316 11.3258Z" fill="url(#paint13_linear_1949_753)"/>
<path d="M17.5565 10.2745L17.0571 8.93408L17.0834 10.7738L17.5565 10.2745Z" fill="url(#paint14_linear_1949_753)"/>
<path d="M24.3696 2.16943L25.9403 6.35599L30.185 7.90516L25.9403 9.45432L24.3696 13.6409L22.7989 9.45432L18.5542 7.90516L22.7989 6.35599L24.3696 2.16943Z" fill="#2EE0A2"/>
<path d="M25.9624 9.41845L24.3691 13.6406L24.4488 7.8252L25.9624 9.41845Z" fill="url(#paint15_linear_1949_753)"/>
<path d="M25.8608 6.31153L30.0251 7.90478L24.4487 7.82512L25.8608 6.31153Z" fill="url(#paint16_linear_1949_753)"/>
<path d="M22.8555 6.31153L18.5537 7.90479L24.4487 7.82512L22.8555 6.31153Z" fill="url(#paint17_linear_1949_753)" fill-opacity="0.35"/>
<path d="M22.7758 9.49811L18.5537 7.90486L24.4487 7.8252L22.7758 9.49811Z" fill="url(#paint18_linear_1949_753)"/>
<path d="M25.8827 6.31183L24.3691 2.24902L24.4488 7.82542L25.8827 6.31183Z" fill="url(#paint19_linear_1949_753)"/>
<defs>
<linearGradient id="paint0_linear_1949_753" x1="13.5693" y1="16.4613" x2="15.5078" y2="16.4613" gradientUnits="userSpaceOnUse">
<stop stop-color="#112D5A"/>
<stop offset="1" stop-color="#2460C0" stop-opacity="0"/>
</linearGradient>
<linearGradient id="paint1_linear_1949_753" x1="6.73828" y1="19.2307" x2="8.49213" y2="19.2307" gradientUnits="userSpaceOnUse">
<stop stop-color="#112D5A"/>
<stop offset="1" stop-color="#2460C0" stop-opacity="0"/>
</linearGradient>
<linearGradient id="paint2_linear_1949_753" x1="17.1232" y1="1" x2="17.1232" y2="25" gradientUnits="userSpaceOnUse">
<stop stop-opacity="0"/>
<stop offset="1"/>
</linearGradient>
<linearGradient id="paint3_linear_1949_753" x1="10.2921" y1="7.646" x2="10.2921" y2="24.9998" gradientUnits="userSpaceOnUse">
<stop stop-opacity="0"/>
<stop offset="1"/>
</linearGradient>
<linearGradient id="paint4_linear_1949_753" x1="0.646154" y1="13.2769" x2="3.05295" y2="19.0096" gradientUnits="userSpaceOnUse">
<stop stop-color="#26B7FF"/>
<stop offset="1" stop-color="#26B7FF" stop-opacity="0"/>
</linearGradient>
<linearGradient id="paint5_linear_1949_753" x1="18.6002" y1="3.32324" x2="18.6002" y2="6.69247" gradientUnits="userSpaceOnUse">
<stop stop-color="#0FD38F"/>
<stop offset="1" stop-color="#00B182"/>
</linearGradient>
<linearGradient id="paint6_linear_1949_753" x1="18.1846" y1="2.9076" x2="21.4153" y2="2.9076" gradientUnits="userSpaceOnUse">
<stop stop-color="#0FD38F"/>
<stop offset="1" stop-color="#00B182"/>
</linearGradient>
<linearGradient id="paint7_linear_1949_753" x1="14.8153" y1="3.36914" x2="17.2615" y2="2.44606" gradientUnits="userSpaceOnUse">
<stop offset="0.725" stop-color="white" stop-opacity="0"/>
<stop offset="0.995" stop-color="white"/>
</linearGradient>
<linearGradient id="paint8_linear_1949_753" x1="18.1846" y1="3.80786" x2="14.7692" y2="3.80786" gradientUnits="userSpaceOnUse">
<stop stop-color="#0FD38F"/>
<stop offset="1" stop-color="#00B182"/>
</linearGradient>
<linearGradient id="paint9_linear_1949_753" x1="18.5771" y1="0.0922852" x2="18.5771" y2="3.32305" gradientUnits="userSpaceOnUse">
<stop stop-color="#0FD38F"/>
<stop offset="1" stop-color="#00B182"/>
</linearGradient>
<linearGradient id="paint10_linear_1949_753" x1="17.3199" y1="10.7739" x2="17.3199" y2="12.6925" gradientUnits="userSpaceOnUse">
<stop stop-color="#0FD38F"/>
<stop offset="1" stop-color="#00B182"/>
</linearGradient>
<linearGradient id="paint11_linear_1949_753" x1="17.0835" y1="10.537" x2="18.9232" y2="10.537" gradientUnits="userSpaceOnUse">
<stop stop-color="#0FD38F"/>
<stop offset="1" stop-color="#00B182"/>
</linearGradient>
<linearGradient id="paint12_linear_1949_753" x1="15.1649" y1="10.7998" x2="16.5579" y2="10.2742" gradientUnits="userSpaceOnUse">
<stop offset="0.725" stop-color="white" stop-opacity="0"/>
<stop offset="0.995" stop-color="white"/>
</linearGradient>
<linearGradient id="paint13_linear_1949_753" x1="17.0835" y1="11.0499" x2="15.1386" y2="11.0499" gradientUnits="userSpaceOnUse">
<stop stop-color="#0FD38F"/>
<stop offset="1" stop-color="#00B182"/>
</linearGradient>
<linearGradient id="paint14_linear_1949_753" x1="17.3068" y1="8.93408" x2="17.3068" y2="10.7738" gradientUnits="userSpaceOnUse">
<stop stop-color="#0FD38F"/>
<stop offset="1" stop-color="#00B182"/>
</linearGradient>
<linearGradient id="paint15_linear_1949_753" x1="25.1658" y1="7.8252" x2="25.1658" y2="13.6406" gradientUnits="userSpaceOnUse">
<stop stop-color="#0FD38F"/>
<stop offset="1" stop-color="#00B182"/>
</linearGradient>
<linearGradient id="paint16_linear_1949_753" x1="24.4487" y1="7.10816" x2="30.0251" y2="7.10816" gradientUnits="userSpaceOnUse">
<stop stop-color="#0FD38F"/>
<stop offset="1" stop-color="#00B182"/>
</linearGradient>
<linearGradient id="paint17_linear_1949_753" x1="18.6333" y1="7.90478" x2="22.8555" y2="6.31153" gradientUnits="userSpaceOnUse">
<stop offset="0.725" stop-color="white" stop-opacity="0"/>
<stop offset="0.995" stop-color="white"/>
</linearGradient>
<linearGradient id="paint18_linear_1949_753" x1="24.4487" y1="8.66166" x2="18.5537" y2="8.66165" gradientUnits="userSpaceOnUse">
<stop stop-color="#0FD38F"/>
<stop offset="1" stop-color="#00B182"/>
</linearGradient>
<linearGradient id="paint19_linear_1949_753" x1="25.1259" y1="2.24902" x2="25.1259" y2="7.82542" gradientUnits="userSpaceOnUse">
<stop stop-color="#0FD38F"/>
<stop offset="1" stop-color="#00B182"/>
</linearGradient>
</defs>
</svg>
