<svg width="33" height="33" viewBox="0 0 33 33" fill="none" xmlns="http://www.w3.org/2000/svg">
<path d="M9.62513 9.625H9.6375M17.8751 19.25H26.1251C27.4066 19.25 28.0474 19.25 28.552 19.459C28.8859 19.5972 29.1892 19.7999 29.4448 20.0554C29.7003 20.3109 29.9029 20.6142 30.0411 20.9481C30.2501 21.4527 30.2501 22.0935 30.2501 23.375C30.2501 24.6565 30.2501 25.2972 30.0411 25.8019C29.9029 26.1358 29.7003 26.4391 29.4448 26.6946C29.1892 26.9501 28.8859 27.1528 28.552 27.291C28.0474 27.5 27.4066 27.5 26.1251 27.5H17.8751M20.6251 6.875H26.1251C27.4066 6.875 28.0474 6.875 28.552 7.084C28.8859 7.22221 29.1892 7.42486 29.4448 7.68037C29.7003 7.93588 29.9029 8.23925 30.0411 8.57313C30.2501 9.07775 30.2501 9.7185 30.2501 11C30.2501 12.2815 30.2501 12.9223 30.0411 13.4269C29.9029 13.7608 29.7003 14.0641 29.4448 14.3196C29.1892 14.5751 28.8859 14.7778 28.552 14.916C28.0474 15.125 27.4066 15.125 26.1251 15.125H20.6251M9.62513 2.75C8.11132 2.74954 6.63969 3.24873 5.43858 4.17011C4.23746 5.09149 3.37404 6.38354 2.98227 7.84577C2.5905 9.30801 2.6923 10.8587 3.27187 12.2571C3.85144 13.6556 4.87637 14.8237 6.18763 15.5801V24.5341C6.18763 25.6589 6.18763 26.2199 6.39663 26.7259C6.60563 27.2305 7.00438 27.6279 7.79913 28.424L9.62513 30.25L12.5236 27.3515C12.657 27.2181 12.7244 27.1508 12.7794 27.0779C12.9251 26.8875 13.0184 26.6623 13.0503 26.4248C13.0626 26.334 13.0626 26.2391 13.0626 26.0507C13.0626 25.8981 13.0626 25.8211 13.0544 25.7469C13.033 25.5521 12.9701 25.3641 12.8701 25.1955C12.8161 25.1098 12.7573 25.0272 12.6941 24.948L11.0001 22.6875L11.9626 21.4046C12.5071 20.6773 12.7808 20.3142 12.921 19.8907C13.0626 19.4672 13.0626 19.0135 13.0626 18.1033V15.5801C14.3739 14.8237 15.3988 13.6556 15.9784 12.2571C16.558 10.8587 16.6598 9.30801 16.268 7.84577C15.8762 6.38354 15.0128 5.09149 13.8117 4.17011C12.6106 3.24873 11.1389 2.74954 9.62513 2.75Z" stroke="#5F7EFF" stroke-width="3" stroke-linecap="round" stroke-linejoin="round"/>
</svg>
