<svg width="32" height="32" viewBox="0 0 32 32" fill="none" xmlns="http://www.w3.org/2000/svg">
<path d="M25.3333 14.6665V13.3332C25.3333 8.30517 25.3333 5.7905 23.7707 4.22917C22.208 2.66784 19.6947 2.6665 14.6667 2.6665C9.63867 2.6665 7.124 2.6665 5.56267 4.22917C4.00133 5.79184 4 8.30517 4 13.3332V18.6665C4 23.6945 4 26.2092 5.56267 27.7705C7.12533 29.3318 9.63867 29.3332 14.6667 29.3332" stroke="#5F7EFF" stroke-width="3" stroke-linecap="round" stroke-linejoin="round"/>
<path d="M28.0002 29.333L25.7148 27.0477M9.3335 9.33301H20.0002M9.3335 14.6663H14.6668M26.4762 23.2383C26.4865 23.8452 26.3759 24.4481 26.1509 25.0118C25.9258 25.5755 25.5907 26.0887 25.1652 26.5216C24.7397 26.9544 24.2322 27.2982 23.6725 27.5329C23.1127 27.7676 22.5118 27.8884 21.9048 27.8884C21.2979 27.8884 20.697 27.7676 20.1372 27.5329C19.5774 27.2982 19.07 26.9544 18.6445 26.5216C18.2189 26.0887 17.8839 25.5755 17.6588 25.0118C17.4337 24.4481 17.3231 23.8452 17.3335 23.2383C17.354 22.0395 17.8446 20.8966 18.6997 20.056C19.5547 19.2155 20.7058 18.7444 21.9048 18.7444C23.1039 18.7444 24.2549 19.2155 25.11 20.056C25.9651 20.8966 26.4557 22.0395 26.4762 23.2383Z" stroke="#5F7EFF" stroke-width="3" stroke-linecap="round" stroke-linejoin="round"/>
</svg>
