<svg width="263" height="48" viewBox="0 0 263 48" fill="none" xmlns="http://www.w3.org/2000/svg">
<path d="M26.4673 2.24299C26.4673 1.00422 27.4715 0 28.7103 0H43.0654C44.3042 0 45.3084 1.00422 45.3084 2.24299V45.757C45.3084 46.9958 44.3042 48 43.0654 48H28.7103C27.4715 48 26.4673 46.9958 26.4673 45.757V2.24299Z" fill="#5F7EFF"/>
<path d="M13.4579 11.6636C13.4579 10.4248 14.4622 9.42056 15.7009 9.42056H29.6075C30.8462 9.42056 31.8505 10.4248 31.8505 11.6636V45.757C31.8505 46.9958 30.8462 48 29.6075 48H15.7009C14.4622 48 13.4579 46.9958 13.4579 45.757V11.6636Z" fill="#26B7FF"/>
<path d="M0 17.9439C0 16.7052 1.00422 15.7009 2.24299 15.7009H16.5981C17.8369 15.7009 18.8411 16.7052 18.8411 17.9439V45.757C18.8411 46.9958 17.8369 48 16.5981 48H2.24299C1.00422 48 0 46.9958 0 45.757V17.9439Z" fill="#2EE0A2"/>
<path d="M68.7414 25.8841C68.871 26.1281 68.9892 26.3836 69.096 26.6505C69.2104 26.9098 69.321 27.1729 69.4277 27.4398C69.5345 27.1653 69.6451 26.8946 69.7595 26.6277C69.8739 26.3607 69.9959 26.1053 70.1255 25.8612L75.0215 16.6984C75.0825 16.584 75.1435 16.4925 75.2046 16.4238C75.2732 16.3552 75.3456 16.3056 75.4219 16.2751C75.5058 16.2446 75.5973 16.2256 75.6964 16.2179C75.7956 16.2103 75.9138 16.2065 76.0511 16.2065H78.3732V32.7477H75.6621V22.0634C75.6621 21.8651 75.6659 21.6478 75.6736 21.4114C75.6888 21.175 75.7079 20.9347 75.7308 20.6907L70.7318 30.0709C70.6174 30.2844 70.4687 30.4522 70.2857 30.5742C70.1027 30.6886 69.8891 30.7458 69.6451 30.7458H69.2218C68.9778 30.7458 68.7643 30.6886 68.5812 30.5742C68.3982 30.4522 68.2495 30.2844 68.1351 30.0709L63.0675 20.6564C63.098 20.908 63.1171 21.1559 63.1247 21.3999C63.14 21.6363 63.1476 21.8575 63.1476 22.0634V32.7477H60.4365V16.2065H62.7587C62.8959 16.2065 63.0141 16.2103 63.1133 16.2179C63.2124 16.2256 63.3001 16.2446 63.3764 16.2751C63.4603 16.3056 63.5365 16.3552 63.6052 16.4238C63.6738 16.4925 63.7386 16.584 63.7996 16.6984L68.7414 25.8841Z" fill="white"/>
<path d="M85.1724 32.7477H82.0838V16.2065H85.1724V32.7477Z" fill="white"/>
<path d="M91.7 16.2065H94.1823C94.4492 16.2065 94.6665 16.2713 94.8343 16.401C95.0021 16.5306 95.1279 16.6984 95.2118 16.9043L99.1012 26.9937C99.2308 27.3216 99.3528 27.6839 99.4672 28.0804C99.5892 28.4694 99.7036 28.8812 99.8104 29.3159C99.9858 28.4389 100.203 27.6648 100.462 26.9937L104.34 16.9043C104.409 16.7289 104.531 16.5687 104.706 16.4238C104.882 16.279 105.099 16.2065 105.358 16.2065H107.841L101.16 32.7477H98.3805L91.7 16.2065Z" fill="white"/>
<path d="M113.033 32.7477H109.945V16.2065H113.033V32.7477Z" fill="white"/>
<path d="M125.627 19.215C125.543 19.3828 125.444 19.501 125.329 19.5696C125.223 19.6383 125.093 19.6726 124.94 19.6726C124.788 19.6726 124.616 19.6154 124.426 19.501C124.235 19.379 124.01 19.2455 123.751 19.1006C123.491 18.9557 123.186 18.8261 122.836 18.7117C122.492 18.5897 122.084 18.5287 121.612 18.5287C121.185 18.5287 120.811 18.5821 120.491 18.6888C120.178 18.788 119.911 18.929 119.69 19.1121C119.476 19.2951 119.316 19.5163 119.209 19.7756C119.103 20.0272 119.049 20.3056 119.049 20.6106C119.049 20.9995 119.156 21.3237 119.37 21.583C119.591 21.8422 119.881 22.0634 120.239 22.2464C120.597 22.4295 121.005 22.5934 121.463 22.7383C121.92 22.8832 122.386 23.0395 122.859 23.2073C123.339 23.3675 123.808 23.5581 124.266 23.7793C124.723 23.9928 125.131 24.2674 125.49 24.6029C125.848 24.9308 126.134 25.335 126.347 25.8155C126.569 26.2959 126.679 26.8793 126.679 27.5657C126.679 28.313 126.55 29.0147 126.29 29.6705C126.039 30.3187 125.665 30.8869 125.169 31.375C124.681 31.8554 124.083 32.2367 123.373 32.5189C122.664 32.7934 121.852 32.9307 120.937 32.9307C120.411 32.9307 119.892 32.8773 119.381 32.7705C118.87 32.6714 118.378 32.5265 117.905 32.3358C117.44 32.1452 117.002 31.9164 116.59 31.6495C116.186 31.3826 115.823 31.0852 115.503 30.7572L116.395 29.2816C116.479 29.1748 116.578 29.0871 116.693 29.0185C116.815 28.9422 116.948 28.9041 117.093 28.9041C117.284 28.9041 117.49 28.9841 117.711 29.1443C117.932 29.2968 118.191 29.4684 118.489 29.6591C118.794 29.8497 119.148 30.0251 119.553 30.1853C119.964 30.3378 120.456 30.4141 121.028 30.4141C121.905 30.4141 122.584 30.2081 123.064 29.7963C123.545 29.3769 123.785 28.7782 123.785 28.0004C123.785 27.5657 123.675 27.2111 123.453 26.9365C123.24 26.662 122.954 26.4332 122.595 26.2502C122.237 26.0595 121.829 25.8994 121.371 25.7697C120.914 25.6401 120.449 25.499 119.976 25.3465C119.503 25.1939 119.038 25.0109 118.58 24.7974C118.123 24.5838 117.715 24.3055 117.356 23.9623C116.998 23.6191 116.708 23.1921 116.487 22.6811C116.273 22.1625 116.167 21.5258 116.167 20.7708C116.167 20.1683 116.285 19.5811 116.521 19.0091C116.765 18.4372 117.116 17.93 117.574 17.4877C118.039 17.0454 118.607 16.6908 119.278 16.4238C119.949 16.1569 120.716 16.0235 121.577 16.0235C122.553 16.0235 123.453 16.176 124.277 16.481C125.101 16.7861 125.802 17.2132 126.382 17.7622L125.627 19.215Z" fill="white"/>
<path d="M135.685 30.2653C136.28 30.2653 136.81 30.1662 137.275 29.9679C137.748 29.7696 138.144 29.4913 138.465 29.1329C138.793 28.7744 139.04 28.3397 139.208 27.8288C139.384 27.3178 139.471 26.7459 139.471 26.1129V16.2065H142.549V26.1129C142.549 27.0967 142.388 28.008 142.068 28.8469C141.755 29.6781 141.302 30.3988 140.707 31.0089C140.112 31.6114 139.391 32.0842 138.545 32.4274C137.698 32.7629 136.745 32.9307 135.685 32.9307C134.625 32.9307 133.672 32.7629 132.825 32.4274C131.979 32.0842 131.258 31.6114 130.663 31.0089C130.076 30.3988 129.622 29.6781 129.302 28.8469C128.989 28.008 128.833 27.0967 128.833 26.1129V16.2065H131.91V26.1015C131.91 26.7344 131.994 27.3064 132.162 27.8173C132.337 28.3283 132.585 28.7668 132.905 29.1329C133.226 29.4913 133.618 29.7696 134.083 29.9679C134.556 30.1662 135.09 30.2653 135.685 30.2653Z" fill="white"/>
<path d="M159.608 32.7477H157.229C156.962 32.7477 156.741 32.6828 156.566 32.5532C156.398 32.4159 156.276 32.2481 156.199 32.0499L154.964 28.6753H148.112L146.876 32.0499C146.815 32.2253 146.693 32.3854 146.51 32.5303C146.335 32.6752 146.118 32.7477 145.858 32.7477H143.468L149.965 16.2065H153.111L159.608 32.7477ZM148.901 26.5018H154.175L152.161 20.9995C152.07 20.7555 151.967 20.4695 151.853 20.1416C151.746 19.8061 151.639 19.4438 151.532 19.0549C151.425 19.4438 151.319 19.8061 151.212 20.1416C151.113 20.4772 151.014 20.7708 150.915 21.0224L148.901 26.5018Z" fill="white"/>
<path d="M164.389 30.2081H171.012V32.7477H161.312V16.2065H164.389V30.2081Z" fill="white"/>
<path d="M176.597 32.7477H173.508V16.2065H176.597V32.7477Z" fill="white"/>
<path d="M192.142 16.2065V17.339C192.142 17.6898 192.043 18.0101 191.845 18.2999L183.357 30.2882H191.936V32.7477H179.364V31.5351C179.364 31.3826 179.391 31.2377 179.444 31.1004C179.498 30.9555 179.566 30.8221 179.65 30.7L188.161 18.6545H179.902V16.2065H192.142Z" fill="white"/>
<path d="M208.985 32.7477H206.605C206.339 32.7477 206.117 32.6828 205.942 32.5532C205.774 32.4159 205.652 32.2481 205.576 32.0499L204.34 28.6753H197.488L196.253 32.0499C196.192 32.2253 196.07 32.3854 195.887 32.5303C195.711 32.6752 195.494 32.7477 195.235 32.7477H192.844L199.342 16.2065H202.487L208.985 32.7477ZM198.278 26.5018H203.551L201.538 20.9995C201.446 20.7555 201.343 20.4695 201.229 20.1416C201.122 19.8061 201.015 19.4438 200.909 19.0549C200.802 19.4438 200.695 19.8061 200.588 20.1416C200.489 20.4772 200.39 20.7708 200.291 21.0224L198.278 26.5018Z" fill="white"/>
<path d="M220.669 16.2065V18.7346H215.693V32.7477H212.616V18.7346H207.617V16.2065H220.669Z" fill="white"/>
<path d="M226.085 32.7477H222.997V16.2065H226.085V32.7477Z" fill="white"/>
<path d="M245.68 24.4771C245.68 25.6896 245.478 26.8145 245.073 27.8517C244.669 28.8812 244.101 29.7735 243.369 30.5284C242.637 31.2834 241.756 31.8745 240.726 32.3015C239.697 32.721 238.557 32.9307 237.306 32.9307C236.055 32.9307 234.911 32.721 233.874 32.3015C232.845 31.8745 231.96 31.2834 231.22 30.5284C230.488 29.7735 229.92 28.8812 229.516 27.8517C229.112 26.8145 228.91 25.6896 228.91 24.4771C228.91 23.2645 229.112 22.1435 229.516 21.1139C229.92 20.0768 230.488 19.1807 231.22 18.4257C231.96 17.6707 232.845 17.0835 233.874 16.6641C234.911 16.237 236.055 16.0235 237.306 16.0235C238.557 16.0235 239.697 16.237 240.726 16.6641C241.756 17.0911 242.637 17.6822 243.369 18.4372C244.101 19.1845 244.669 20.0768 245.073 21.1139C245.478 22.1435 245.68 23.2645 245.68 24.4771ZM242.522 24.4771C242.522 23.5696 242.4 22.7574 242.156 22.0405C241.92 21.316 241.577 20.7021 241.127 20.1988C240.677 19.6955 240.128 19.3104 239.48 19.0434C238.839 18.7765 238.114 18.6431 237.306 18.6431C236.498 18.6431 235.769 18.7765 235.121 19.0434C234.473 19.3104 233.92 19.6955 233.462 20.1988C233.013 20.7021 232.666 21.316 232.422 22.0405C232.177 22.7574 232.055 23.5696 232.055 24.4771C232.055 25.3846 232.177 26.2006 232.422 26.9251C232.666 27.6419 233.013 28.252 233.462 28.7554C233.92 29.2511 234.473 29.6324 235.121 29.8993C235.769 30.1662 236.498 30.2997 237.306 30.2997C238.114 30.2997 238.839 30.1662 239.48 29.8993C240.128 29.6324 240.677 29.2511 241.127 28.7554C241.577 28.252 241.92 27.6419 242.156 26.9251C242.4 26.2006 242.522 25.3846 242.522 24.4771Z" fill="white"/>
<path d="M249.725 16.2065C249.862 16.2065 249.976 16.2141 250.068 16.2294C250.159 16.237 250.239 16.2599 250.308 16.298C250.384 16.3285 250.457 16.3781 250.525 16.4467C250.594 16.5077 250.67 16.5916 250.754 16.6984L259.437 27.7601C259.406 27.4932 259.383 27.2339 259.368 26.9823C259.36 26.723 259.357 26.4828 259.357 26.2616V16.2065H262.068V32.7477H260.478C260.234 32.7477 260.031 32.7095 259.871 32.6333C259.711 32.557 259.555 32.4197 259.402 32.2215L250.754 21.2055C250.777 21.4495 250.792 21.6935 250.8 21.9376C250.815 22.174 250.823 22.3913 250.823 22.5896V32.7477H248.112V16.2065H249.725Z" fill="white"/>
</svg>
