<svg width="25" height="18" viewBox="0 0 25 18" fill="none" xmlns="http://www.w3.org/2000/svg">
<path d="M20.9766 7.61719C23.2812 8.08594 25 10.1172 25 12.5C25 15.2734 22.7344 17.5 20 17.5H5.625C2.5 17.5 0 15 0 11.875C0 9.45312 1.5625 7.34375 3.75 6.60156C3.75 6.48438 3.75 6.36719 3.75 6.25C3.75 2.8125 6.52344 0 10 0C12.3047 0 14.3359 1.28906 15.3906 3.16406C15.9766 2.73438 16.7188 2.5 17.5 2.5C19.5703 2.5 21.25 4.17969 21.25 6.25C21.25 6.75781 21.1328 7.1875 20.9766 7.61719Z" fill="white"/>
</svg>
