<svg width="30" height="16" viewBox="0 0 30 16" fill="none" xmlns="http://www.w3.org/2000/svg">
<path d="M7.125 7.05908L7.64062 8.79346H5.8125L6.375 7.05908C6.51562 6.49658 6.70312 5.46533 6.70312 5.46533H6.75C6.75 5.46533 6.9375 6.49658 7.125 7.05908ZM28.875 0.449707C29.4844 0.449707 30 0.965332 30 1.57471V14.3247C30 14.981 29.4844 15.4497 28.875 15.4497H15.75V0.449707H28.875ZM27.75 6.07471V5.32471C27.75 5.04346 27.4688 4.76221 27.1875 4.76221H24.1875V4.01221C24.1875 3.73096 23.9062 3.44971 23.625 3.44971H22.875C22.5469 3.44971 22.3125 3.73096 22.3125 4.01221V4.76221H19.3125C18.9844 4.76221 18.75 5.04346 18.75 5.32471V6.07471C18.75 6.40283 18.9844 6.63721 19.3125 6.63721H24.6562C24.375 7.34033 23.8594 7.99658 23.25 8.69971C22.9219 8.37158 22.6406 8.04346 22.4062 7.71533C22.2656 7.48096 21.9375 7.38721 21.6562 7.52783L21.3281 7.76221L21.0469 7.94971C20.7656 8.09033 20.6719 8.46533 20.8594 8.74658C21.1406 9.12158 21.4688 9.54346 21.8438 9.91846C21.4688 10.2466 21.0469 10.5278 20.625 10.7622C20.3438 10.9497 20.25 11.2778 20.4375 11.5591L20.8125 12.1685C20.9531 12.4497 21.2812 12.5435 21.5625 12.4028C22.1719 12.0278 22.7344 11.6528 23.25 11.231C23.7656 11.6528 24.2812 12.0278 24.8906 12.4028C25.1719 12.5435 25.5 12.4497 25.6875 12.1685L26.0625 11.5591C26.2031 11.2778 26.1094 10.9497 25.875 10.7622C25.4531 10.5278 25.0312 10.2466 24.6094 9.91846C25.5938 8.88721 26.2969 7.76221 26.625 6.63721H27.1875C27.4688 6.63721 27.75 6.40283 27.75 6.07471ZM0 1.57471C0 0.965332 0.46875 0.449707 1.125 0.449707H14.25V15.4497H1.125C0.46875 15.4497 0 14.981 0 14.3247V1.57471ZM2.71875 11.7466C2.625 12.0747 2.90625 12.4497 3.28125 12.4497H4.35938C4.59375 12.4497 4.82812 12.3091 4.875 12.0747L5.29688 10.5747H8.15625L8.57812 12.0747C8.625 12.3091 8.85938 12.4497 9.09375 12.4497H10.1719C10.5938 12.4497 10.8281 12.0747 10.7344 11.7466L8.01562 3.77783C7.96875 3.59033 7.73438 3.40283 7.5 3.40283H5.95312C5.71875 3.40283 5.53125 3.59033 5.4375 3.77783L2.71875 11.7466Z" fill="#178EE8"/>
</svg>
