<svg width="25" height="16" viewBox="0 0 25 16" fill="none" xmlns="http://www.w3.org/2000/svg">
<path d="M1.36353 15.7259C1.01153 15.7259 0.699532 15.5979 0.427531 15.3419C0.171531 15.0699 0.0435315 14.7579 0.0435315 14.4059V4.80586C0.0435315 4.43786 0.171531 4.12586 0.427531 3.86986C0.699532 3.61386 1.01153 3.48586 1.36353 3.48586H4.02753V1.34986C4.02753 1.10986 4.10753 0.909862 4.26753 0.749862C4.44353 0.589862 4.65153 0.509862 4.89153 0.509862H19.4835C19.7235 0.509862 19.9235 0.589862 20.0835 0.749862C20.2595 0.909862 20.3475 1.10986 20.3475 1.34986V3.48586H23.0115C23.3795 3.48586 23.6915 3.61386 23.9475 3.86986C24.2035 4.12586 24.3315 4.43786 24.3315 4.80586V14.4059C24.3315 14.7579 24.2035 15.0699 23.9475 15.3419C23.6915 15.5979 23.3795 15.7259 23.0115 15.7259H1.36353ZM5.25153 1.63786V3.48586H19.1235V1.63786H5.25153ZM3.06753 6.48586H21.3075C21.5795 6.48586 21.7155 6.34986 21.7155 6.07786V4.99786C21.7155 4.70986 21.5795 4.56586 21.3075 4.56586H3.06753C2.79553 4.56586 2.65953 4.70986 2.65953 4.99786V6.07786C2.65953 6.34986 2.79553 6.48586 3.06753 6.48586ZM20.6595 6.07786C20.5155 6.07786 20.3875 6.02986 20.2755 5.93386C20.1635 5.82186 20.1075 5.68586 20.1075 5.52586C20.1075 5.38186 20.1635 5.26186 20.2755 5.16586C20.3875 5.05386 20.5155 4.99786 20.6595 4.99786C20.8195 4.99786 20.9475 5.05386 21.0435 5.16586C21.1555 5.26186 21.2115 5.38186 21.2115 5.52586C21.2115 5.68586 21.1555 5.82186 21.0435 5.93386C20.9475 6.02986 20.8195 6.07786 20.6595 6.07786ZM3.37953 5.81386V5.26186H19.4835V5.81386H3.37953ZM4.74753 14.5499C5.38753 14.5499 5.97153 14.3979 6.49953 14.0939C7.02753 13.7739 7.44353 13.3499 7.74753 12.8219C8.06753 12.2939 8.22753 11.7099 8.22753 11.0699C8.22753 10.4299 8.06753 9.84586 7.74753 9.31786C7.44353 8.78986 7.02753 8.37386 6.49953 8.06986C5.97153 7.74986 5.38753 7.58986 4.74753 7.58986C4.10753 7.58986 3.52353 7.74986 2.99553 8.06986C2.48353 8.37386 2.06753 8.78986 1.74753 9.31786C1.44353 9.84586 1.29153 10.4299 1.29153 11.0699C1.29153 11.7099 1.44353 12.2939 1.74753 12.8219C2.06753 13.3499 2.48353 13.7739 2.99553 14.0939C3.52353 14.3979 4.10753 14.5499 4.74753 14.5499ZM19.6275 14.5499C20.2675 14.5499 20.8435 14.3979 21.3555 14.0939C21.8835 13.7739 22.2995 13.3499 22.6035 12.8219C22.9235 12.2939 23.0835 11.7099 23.0835 11.0699C23.0835 10.4299 22.9235 9.84586 22.6035 9.31786C22.2995 8.78986 21.8835 8.37386 21.3555 8.06986C20.8435 7.74986 20.2675 7.58986 19.6275 7.58986C18.9875 7.58986 18.4035 7.74986 17.8755 8.06986C17.3475 8.37386 16.9235 8.78986 16.6035 9.31786C16.2995 9.84586 16.1475 10.4299 16.1475 11.0699C16.1475 11.7099 16.2995 12.2939 16.6035 12.8219C16.9235 13.3499 17.3475 13.7739 17.8755 14.0939C18.4035 14.3979 18.9875 14.5499 19.6275 14.5499ZM4.74753 13.7579C4.26753 13.7579 3.81953 13.6379 3.40353 13.3979C3.00353 13.1579 2.67553 12.8379 2.41953 12.4379C2.17953 12.0219 2.05953 11.5659 2.05953 11.0699C2.05953 10.5739 2.17953 10.1259 2.41953 9.72586C2.67553 9.30986 3.00353 8.98186 3.40353 8.74186C3.81953 8.48586 4.26753 8.35786 4.74753 8.35786C5.24353 8.35786 5.69153 8.48586 6.09153 8.74186C6.50753 8.98186 6.83553 9.30986 7.07553 9.72586C7.33153 10.1259 7.45953 10.5739 7.45953 11.0699C7.45953 11.5659 7.33153 12.0219 7.07553 12.4379C6.83553 12.8379 6.50753 13.1579 6.09153 13.3979C5.69153 13.6379 5.24353 13.7579 4.74753 13.7579ZM19.6275 13.7579C19.1315 13.7579 18.6755 13.6379 18.2595 13.3979C17.8595 13.1579 17.5315 12.8379 17.2755 12.4379C17.0355 12.0219 16.9155 11.5659 16.9155 11.0699C16.9155 10.5739 17.0355 10.1259 17.2755 9.72586C17.5315 9.30986 17.8595 8.98186 18.2595 8.74186C18.6755 8.48586 19.1315 8.35786 19.6275 8.35786C20.1235 8.35786 20.5715 8.48586 20.9715 8.74186C21.3715 8.98186 21.6915 9.30986 21.9315 9.72586C22.1875 10.1259 22.3155 10.5739 22.3155 11.0699C22.3155 11.5659 22.1875 12.0219 21.9315 12.4379C21.6915 12.8379 21.3715 13.1579 20.9715 13.3979C20.5715 13.6379 20.1235 13.7579 19.6275 13.7579ZM9.59553 12.7739H14.8035C15.0755 12.7739 15.2115 12.6379 15.2115 12.3659V9.29386C15.2115 9.00586 15.0755 8.86186 14.8035 8.86186H9.59553C9.32353 8.86186 9.18753 9.00586 9.18753 9.29386V12.3659C9.18753 12.6379 9.32353 12.7739 9.59553 12.7739ZM4.74753 12.0779C5.01953 12.0779 5.25153 11.9819 5.44353 11.7899C5.65153 11.5819 5.75553 11.3419 5.75553 11.0699C5.75553 10.7979 5.65153 10.5659 5.44353 10.3739C5.25153 10.1659 5.01953 10.0619 4.74753 10.0619C4.49153 10.0619 4.25953 10.1659 4.05153 10.3739C3.85953 10.5659 3.76353 10.7979 3.76353 11.0699C3.76353 11.3419 3.85953 11.5819 4.05153 11.7899C4.25953 11.9819 4.49153 12.0779 4.74753 12.0779ZM19.6275 12.0779C19.8995 12.0779 20.1315 11.9819 20.3235 11.7899C20.5155 11.5819 20.6115 11.3419 20.6115 11.0699C20.6115 10.7979 20.5155 10.5659 20.3235 10.3739C20.1315 10.1659 19.8995 10.0619 19.6275 10.0619C19.3555 10.0619 19.1155 10.1659 18.9075 10.3739C18.7155 10.5659 18.6195 10.7979 18.6195 11.0699C18.6195 11.3419 18.7155 11.5819 18.9075 11.7899C19.1155 11.9819 19.3555 12.0779 19.6275 12.0779ZM10.2435 12.0299C10.0675 12.0299 9.97953 11.9339 9.97953 11.7419V10.2059H14.4195V11.7419C14.4195 11.9339 14.3315 12.0299 14.1555 12.0299H10.2435ZM9.40353 14.5979H9.61953C9.76353 14.5979 9.83553 14.5339 9.83553 14.4059V13.7099C9.83553 13.5819 9.76353 13.5179 9.61953 13.5179H9.40353C9.25953 13.5179 9.18753 13.5819 9.18753 13.7099V14.4059C9.18753 14.5339 9.25953 14.5979 9.40353 14.5979ZM10.5315 14.5979H10.7715C10.9155 14.5979 10.9875 14.5339 10.9875 14.4059V13.7099C10.9875 13.5819 10.9155 13.5179 10.7715 13.5179H10.5315C10.4035 13.5179 10.3395 13.5819 10.3395 13.7099V14.4059C10.3395 14.5339 10.4035 14.5979 10.5315 14.5979ZM11.6835 14.5979H11.9235C12.0515 14.5979 12.1155 14.5339 12.1155 14.4059V13.7099C12.1155 13.5819 12.0515 13.5179 11.9235 13.5179H11.6835C11.5395 13.5179 11.4675 13.5819 11.4675 13.7099V14.4059C11.4675 14.5339 11.5395 14.5979 11.6835 14.5979ZM12.8355 14.5979H13.0515C13.1955 14.5979 13.2675 14.5339 13.2675 14.4059V13.7099C13.2675 13.5819 13.1955 13.5179 13.0515 13.5179H12.8355C12.6915 13.5179 12.6195 13.5819 12.6195 13.7099V14.4059C12.6195 14.5339 12.6915 14.5979 12.8355 14.5979ZM13.9635 14.5979H14.9955C15.1395 14.5979 15.2115 14.5339 15.2115 14.4059V13.7099C15.2115 13.5819 15.1395 13.5179 14.9955 13.5179H13.9635C13.8355 13.5179 13.7715 13.5819 13.7715 13.7099V14.4059C13.7715 14.5339 13.8355 14.5979 13.9635 14.5979Z" fill="#00D4FF"/>
</svg>
