<svg width="32" height="32" viewBox="0 0 32 32" fill="none" xmlns="http://www.w3.org/2000/svg">
<path d="M27.9998 13.3332C27.1998 13.3332 26.6665 12.7998 26.6665 11.9998V5.33317H19.9998C19.1998 5.33317 18.6665 4.79984 18.6665 3.99984C18.6665 3.19984 19.1998 2.6665 19.9998 2.6665H27.9998C28.7998 2.6665 29.3332 3.19984 29.3332 3.99984V11.9998C29.3332 12.7998 28.7998 13.3332 27.9998 13.3332ZM3.99984 13.3332C3.19984 13.3332 2.6665 12.7998 2.6665 11.9998V3.99984C2.6665 3.19984 3.19984 2.6665 3.99984 2.6665H11.9998C12.7998 2.6665 13.3332 3.19984 13.3332 3.99984C13.3332 4.79984 12.7998 5.33317 11.9998 5.33317H5.33317V11.9998C5.33317 12.7998 4.79984 13.3332 3.99984 13.3332ZM11.9998 29.3332H3.99984C3.19984 29.3332 2.6665 28.7998 2.6665 27.9998V19.9998C2.6665 19.1998 3.19984 18.6665 3.99984 18.6665C4.79984 18.6665 5.33317 19.1998 5.33317 19.9998V26.6665H11.9998C12.7998 26.6665 13.3332 27.1998 13.3332 27.9998C13.3332 28.7998 12.7998 29.3332 11.9998 29.3332ZM27.9998 29.3332H19.9998C19.1998 29.3332 18.6665 28.7998 18.6665 27.9998C18.6665 27.1998 19.1998 26.6665 19.9998 26.6665H26.6665V19.9998C26.6665 19.1998 27.1998 18.6665 27.9998 18.6665C28.7998 18.6665 29.3332 19.1998 29.3332 19.9998V27.9998C29.3332 28.7998 28.7998 29.3332 27.9998 29.3332Z" fill="#5F7EFF"/>
<path opacity="0.5" d="M12.0002 13.3333H20.0002C21.4668 13.3333 22.6668 14.5333 22.6668 16V21.3333C22.6668 22.8 21.4668 24 20.0002 24H12.0002C10.5335 24 9.3335 22.8 9.3335 21.3333V16C9.3335 14.5333 10.5335 13.3333 12.0002 13.3333ZM14.6668 12C14.6668 11.2 15.2002 10.6667 16.0002 10.6667C16.8002 10.6667 17.3335 11.2 17.3335 12V13.3333H20.0002V12C20.0002 9.73333 18.2668 8 16.0002 8C13.7335 8 12.0002 9.73333 12.0002 12V13.3333H14.6668V12Z" fill="#5F7EFF"/>
</svg>
