<svg width="230" height="42" viewBox="0 0 230 42" fill="none" xmlns="http://www.w3.org/2000/svg">
<path d="M23.2287 1.96262C23.2287 0.878693 24.11 0 25.1972 0H37.7958C38.883 0 39.7643 0.878694 39.7643 1.96262V40.0374C39.7643 41.1213 38.883 42 37.7958 42H25.1972C24.11 42 23.2287 41.1213 23.2287 40.0374V1.96262Z" fill="white" fill-opacity="0.8"/>
<path d="M11.8112 10.2056C11.8112 9.12169 12.6925 8.24299 13.7797 8.24299H25.9846C27.0718 8.24299 27.9531 9.12168 27.9531 10.2056V40.0374C27.9531 41.1213 27.0718 42 25.9846 42H13.7797C12.6925 42 11.8112 41.1213 11.8112 40.0374V10.2056Z" fill="#ECECEC"/>
<path d="M0 15.7009C0 14.617 0.881341 13.7383 1.96853 13.7383H14.5671C15.6543 13.7383 16.5356 14.617 16.5356 15.7009V40.0374C16.5356 41.1213 15.6543 42 14.5671 42H1.96853C0.881341 42 0 41.1213 0 40.0374V15.7009Z" fill="white"/>
<path d="M60.3299 22.6486C60.4437 22.8621 60.5474 23.0857 60.6411 23.3192C60.7415 23.5461 60.8386 23.7763 60.9323 24.0099C61.026 23.7696 61.123 23.5328 61.2234 23.2992C61.3238 23.0657 61.4309 22.8421 61.5447 22.6286L65.8416 14.6111C65.8952 14.511 65.9487 14.4309 66.0022 14.3709C66.0625 14.3108 66.1261 14.2674 66.193 14.2407C66.2666 14.2141 66.3469 14.1974 66.4339 14.1907C66.521 14.184 66.6247 14.1807 66.7452 14.1807H68.7832V28.6542H66.4038V19.3055C66.4038 19.132 66.4072 18.9418 66.4139 18.7349C66.4272 18.5281 66.444 18.3179 66.4641 18.1044L62.0768 26.312C61.9764 26.4989 61.8459 26.6457 61.6853 26.7524C61.5246 26.8525 61.3372 26.9026 61.123 26.9026H60.7516C60.5374 26.9026 60.35 26.8525 60.1894 26.7524C60.0287 26.6457 59.8982 26.4989 59.7978 26.312L55.3503 18.0743C55.3771 18.2945 55.3938 18.5114 55.4005 18.7249C55.4139 18.9318 55.4206 19.1253 55.4206 19.3055V28.6542H53.0412V14.1807H55.0793C55.1997 14.1807 55.3035 14.184 55.3905 14.1907C55.4775 14.1974 55.5545 14.2141 55.6214 14.2407C55.695 14.2674 55.7619 14.3108 55.8222 14.3709C55.8824 14.4309 55.9393 14.511 55.9929 14.6111L60.3299 22.6486Z" fill="white"/>
<path d="M74.7504 28.6542H72.0397V14.1807H74.7504V28.6542Z" fill="white"/>
<path d="M80.4792 14.1807H82.6578C82.892 14.1807 83.0828 14.2374 83.23 14.3509C83.3773 14.4643 83.4877 14.6111 83.5613 14.7913L86.9748 23.6195C87.0885 23.9064 87.1956 24.2234 87.296 24.5704C87.4031 24.9107 87.5035 25.271 87.5972 25.6514C87.7512 24.884 87.9419 24.2067 88.1695 23.6195L91.5728 14.7913C91.6331 14.6378 91.7402 14.4977 91.8941 14.3709C92.0481 14.2441 92.2388 14.1807 92.4664 14.1807H94.6449L88.7819 28.6542H86.3423L80.4792 14.1807Z" fill="white"/>
<path d="M99.2021 28.6542H96.4914V14.1807H99.2021V28.6542Z" fill="white"/>
<path d="M110.255 16.8131C110.181 16.96 110.094 17.0634 109.994 17.1234C109.9 17.1835 109.786 17.2135 109.652 17.2135C109.518 17.2135 109.368 17.1635 109.2 17.0634C109.033 16.9566 108.836 16.8398 108.608 16.7131C108.381 16.5863 108.113 16.4728 107.805 16.3727C107.504 16.266 107.146 16.2126 106.731 16.2126C106.356 16.2126 106.028 16.2593 105.747 16.3527C105.472 16.4395 105.238 16.5629 105.044 16.7231C104.857 16.8832 104.716 17.0767 104.622 17.3036C104.529 17.5238 104.482 17.7674 104.482 18.0343C104.482 18.3746 104.576 18.6582 104.763 18.8851C104.957 19.112 105.211 19.3055 105.526 19.4656C105.841 19.6258 106.199 19.7692 106.6 19.896C107.002 20.0228 107.41 20.1596 107.825 20.3064C108.247 20.4465 108.658 20.6134 109.06 20.8069C109.462 20.9937 109.82 21.2339 110.134 21.5276C110.449 21.8145 110.7 22.1681 110.887 22.5885C111.081 23.0089 111.178 23.5194 111.178 24.12C111.178 24.7739 111.064 25.3878 110.837 25.9617C110.616 26.5289 110.288 27.026 109.853 27.4531C109.425 27.8735 108.899 28.2071 108.277 28.454C107.654 28.6942 106.942 28.8144 106.138 28.8144C105.677 28.8144 105.222 28.7676 104.773 28.6742C104.325 28.5875 103.893 28.4607 103.478 28.2939C103.07 28.127 102.685 27.9269 102.323 27.6933C101.969 27.4598 101.651 27.1995 101.37 26.9126L102.153 25.6214C102.226 25.528 102.313 25.4512 102.414 25.3912C102.521 25.3244 102.638 25.2911 102.765 25.2911C102.932 25.2911 103.113 25.3611 103.307 25.5013C103.501 25.6347 103.729 25.7849 103.99 25.9517C104.258 26.1185 104.569 26.272 104.924 26.4121C105.285 26.5456 105.717 26.6123 106.219 26.6123C106.988 26.6123 107.584 26.4321 108.006 26.0718C108.427 25.7048 108.638 25.181 108.638 24.5003C108.638 24.12 108.541 23.8097 108.347 23.5695C108.16 23.3292 107.909 23.129 107.594 22.9689C107.28 22.8021 106.922 22.6619 106.52 22.5485C106.118 22.4351 105.71 22.3116 105.295 22.1782C104.88 22.0447 104.472 21.8846 104.07 21.6977C103.669 21.5109 103.311 21.2673 102.996 20.967C102.682 20.6667 102.427 20.2931 102.233 19.846C102.046 19.3922 101.952 18.835 101.952 18.1744C101.952 17.6473 102.056 17.1334 102.263 16.633C102.477 16.1325 102.785 15.6888 103.187 15.3017C103.595 14.9147 104.094 14.6044 104.683 14.3709C105.272 14.1373 105.944 14.0205 106.701 14.0205C107.557 14.0205 108.347 14.154 109.07 14.4209C109.793 14.6878 110.409 15.0615 110.917 15.542L110.255 16.8131Z" fill="white"/>
<path d="M119.082 26.4822C119.604 26.4822 120.069 26.3954 120.478 26.2219C120.892 26.0484 121.241 25.8049 121.522 25.4913C121.809 25.1776 122.027 24.7973 122.174 24.3502C122.328 23.9031 122.405 23.4026 122.405 22.8488V14.1807H125.106V22.8488C125.106 23.7096 124.965 24.507 124.684 25.241C124.41 25.9684 124.011 26.599 123.489 27.1328C122.967 27.6599 122.335 28.0737 121.592 28.3739C120.849 28.6676 120.012 28.8144 119.082 28.8144C118.152 28.8144 117.315 28.6676 116.572 28.3739C115.829 28.0737 115.197 27.6599 114.675 27.1328C114.159 26.599 113.761 25.9684 113.48 25.241C113.206 24.507 113.068 23.7096 113.068 22.8488V14.1807H115.769V22.8388C115.769 23.3926 115.843 23.8931 115.99 24.3402C116.144 24.7873 116.361 25.171 116.642 25.4913C116.924 25.8049 117.268 26.0484 117.676 26.2219C118.091 26.3954 118.56 26.4822 119.082 26.4822Z" fill="white"/>
<path d="M140.078 28.6542H137.99C137.756 28.6542 137.562 28.5975 137.408 28.484C137.26 28.3639 137.153 28.2171 137.086 28.0436L136.002 25.0909H129.988L128.904 28.0436C128.851 28.1971 128.743 28.3372 128.583 28.464C128.429 28.5908 128.238 28.6542 128.011 28.6542H125.912L131.615 14.1807H134.376L140.078 28.6542ZM130.681 23.1891H135.309L133.542 18.3746C133.462 18.1611 133.372 17.9108 133.271 17.6239C133.178 17.3303 133.084 17.0133 132.99 16.673C132.896 17.0133 132.803 17.3303 132.709 17.6239C132.622 17.9175 132.535 18.1744 132.448 18.3946L130.681 23.1891Z" fill="white"/>
<path d="M144.274 26.4321H150.087V28.6542H141.573V14.1807H144.274V26.4321Z" fill="white"/>
<path d="M154.988 28.6542H152.277V14.1807H154.988V28.6542Z" fill="white"/>
<path d="M168.631 14.1807V15.1716C168.631 15.4786 168.544 15.7588 168.37 16.0124L160.92 26.5022H168.45V28.6542H157.417V27.5932C157.417 27.4598 157.44 27.333 157.487 27.2129C157.534 27.0861 157.594 26.9693 157.668 26.8625L165.137 16.3227H157.888V14.1807H168.631Z" fill="white"/>
<path d="M183.413 28.6542H181.324C181.09 28.6542 180.896 28.5975 180.742 28.484C180.595 28.3639 180.488 28.2171 180.421 28.0436L179.337 25.0909H173.323L172.239 28.0436C172.185 28.1971 172.078 28.3372 171.917 28.464C171.763 28.5908 171.573 28.6542 171.345 28.6542H169.247L174.949 14.1807H177.71L183.413 28.6542ZM174.016 23.1891H178.644L176.877 18.3746C176.797 18.1611 176.706 17.9108 176.606 17.6239C176.512 17.3303 176.418 17.0133 176.325 16.673C176.231 17.0133 176.137 17.3303 176.044 17.6239C175.957 17.9175 175.87 18.1744 175.783 18.3946L174.016 23.1891Z" fill="white"/>
<path d="M193.667 14.1807V16.3928H189.3V28.6542H186.6V16.3928H182.212V14.1807H193.667Z" fill="white"/>
<path d="M198.421 28.6542H195.71V14.1807H198.421V28.6542Z" fill="white"/>
<path d="M215.617 21.4174C215.617 22.4784 215.44 23.4627 215.085 24.3702C214.73 25.271 214.232 26.0518 213.589 26.7124C212.947 27.373 212.174 27.8902 211.27 28.2638C210.367 28.6309 209.366 28.8144 208.268 28.8144C207.171 28.8144 206.167 28.6309 205.257 28.2638C204.353 27.8902 203.577 27.373 202.927 26.7124C202.285 26.0518 201.786 25.271 201.432 24.3702C201.077 23.4627 200.899 22.4784 200.899 21.4174C200.899 20.3565 201.077 19.3755 201.432 18.4747C201.786 17.5672 202.285 16.7831 202.927 16.1225C203.577 15.4619 204.353 14.9481 205.257 14.5811C206.167 14.2074 207.171 14.0205 208.268 14.0205C209.366 14.0205 210.367 14.2074 211.27 14.5811C212.174 14.9547 212.947 15.4719 213.589 16.1325C214.232 16.7865 214.73 17.5672 215.085 18.4747C215.44 19.3755 215.617 20.3565 215.617 21.4174ZM212.846 21.4174C212.846 20.6234 212.739 19.9127 212.525 19.2855C212.318 18.6515 212.016 18.1144 211.622 17.674C211.227 17.2335 210.745 16.8966 210.176 16.663C209.614 16.4295 208.978 16.3127 208.268 16.3127C207.559 16.3127 206.92 16.4295 206.351 16.663C205.782 16.8966 205.297 17.2335 204.895 17.674C204.5 18.1144 204.196 18.6515 203.982 19.2855C203.767 19.9127 203.66 20.6234 203.66 21.4174C203.66 22.2115 203.767 22.9255 203.982 23.5595C204.196 24.1867 204.5 24.7205 204.895 25.1609C205.297 25.5947 205.782 25.9283 206.351 26.1619C206.92 26.3954 207.559 26.5122 208.268 26.5122C208.978 26.5122 209.614 26.3954 210.176 26.1619C210.745 25.9283 211.227 25.5947 211.622 25.1609C212.016 24.7205 212.318 24.1867 212.525 23.5595C212.739 22.9255 212.846 22.2115 212.846 21.4174Z" fill="white"/>
<path d="M219.167 14.1807C219.288 14.1807 219.388 14.1874 219.469 14.2007C219.549 14.2074 219.619 14.2274 219.679 14.2608C219.746 14.2875 219.81 14.3308 219.87 14.3909C219.93 14.4443 219.997 14.5177 220.071 14.6111L227.691 24.2901C227.664 24.0566 227.644 23.8297 227.631 23.6095C227.624 23.3826 227.621 23.1724 227.621 22.9789V14.1807H230V28.6542H228.605C228.39 28.6542 228.213 28.6208 228.072 28.5541C227.932 28.4874 227.795 28.3673 227.661 28.1938L220.071 18.5548C220.091 18.7683 220.104 18.9818 220.111 19.1954C220.124 19.4022 220.131 19.5924 220.131 19.7659V28.6542H217.752V14.1807H219.167Z" fill="white"/>
</svg>
