<svg width="25" height="20" viewBox="0 0 25 20" fill="none" xmlns="http://www.w3.org/2000/svg">
<path fill-rule="evenodd" clip-rule="evenodd" d="M0.5 0.882812H24.5V19.8828H0.5V0.882812ZM12 13.8828H13.7V16.3203H12V13.8828ZM17.3 11.5703H14.9V16.3203H17.3V11.5703ZM18.5 9.1953H20.9V16.3203H18.5V9.1953ZM22.1 3.25783H2.89997V5.6328H22.1V3.25783ZM11.3 12.1641C11.3 14.4595 9.41958 16.3203 7.09999 16.3203C4.78041 16.3203 2.89997 14.4595 2.89997 12.1641C2.89997 9.86861 4.78041 8.00782 7.09999 8.00782C9.41958 8.00782 11.3 9.86861 11.3 12.1641ZM8.4091 9.49288C8.00109 9.29699 7.55349 9.19524 7.09999 9.1953V12.1641L10.0172 12.8566C10.1767 12.1985 10.1042 11.5062 9.81177 10.8945C9.5193 10.2827 9.02441 9.78822 8.4091 9.49288Z" fill="#3B82F6"/>
</svg>
