<svg width="74" height="51" viewBox="0 0 74 51" fill="none" xmlns="http://www.w3.org/2000/svg">
<rect y="3.69043" width="59.8045" height="37.2553" rx="5" fill="#5F7EFF"/>
<rect x="16.666" y="42.9072" width="26.4709" height="7.84322" rx="3.92161" fill="#5F7EFF"/>
<rect x="3.9209" y="0.75" width="59.8045" height="37.2553" rx="5" fill="#D9E4F1"/>
<rect x="46.0801" y="4.6709" width="26.9611" height="10.7844" rx="5" fill="#335AFF"/>
<path d="M71.1854 10.1527C71.1854 10.7803 71.0647 11.3123 70.8233 11.7487C70.5819 12.185 70.2551 12.5165 69.8429 12.743C69.4325 12.9695 68.972 13.0828 68.4614 13.0828C67.9489 13.0828 67.4875 12.9686 67.0771 12.7402C66.6668 12.5118 66.3409 12.1804 66.0995 11.7459C65.86 11.3095 65.7402 10.7785 65.7402 10.1527C65.7402 9.52512 65.86 8.99314 66.0995 8.55678C66.3409 8.12043 66.6668 7.78899 67.0771 7.56245C67.4875 7.33592 67.9489 7.22266 68.4614 7.22266C68.972 7.22266 69.4325 7.33592 69.8429 7.56245C70.2551 7.78899 70.5819 8.12043 70.8233 8.55678C71.0647 8.99314 71.1854 9.52512 71.1854 10.1527ZM69.776 10.1527C69.776 9.78136 69.7231 9.46755 69.6173 9.21131C69.5133 8.95507 69.3629 8.76103 69.1661 8.6292C68.9711 8.49736 68.7362 8.43145 68.4614 8.43145C68.1885 8.43145 67.9536 8.49736 67.7567 8.6292C67.5599 8.76103 67.4086 8.95507 67.3028 9.21131C67.1988 9.46755 67.1468 9.78136 67.1468 10.1527C67.1468 10.5241 67.1988 10.8379 67.3028 11.0941C67.4086 11.3504 67.5599 11.5444 67.7567 11.6762C67.9536 11.8081 68.1885 11.874 68.4614 11.874C68.7362 11.874 68.9711 11.8081 69.1661 11.6762C69.3629 11.5444 69.5133 11.3504 69.6173 11.0941C69.7231 10.8379 69.776 10.5241 69.776 10.1527Z" fill="#8DA3FF"/>
<path d="M58.5615 7.30078H60.2689L61.7172 10.8325H61.784L63.2324 7.30078H64.9397V13.0049H63.5972V9.50112H63.5499L62.1795 12.9687H61.3217L59.9514 9.48162H59.904V13.0049H58.5615V7.30078Z" fill="#8DA3FF"/>
<path d="M53.7217 13.0049V7.30078H57.699V8.42044H55.1004V9.59024H57.4957V10.7127H55.1004V11.8853H57.699V13.0049H53.7217Z" fill="#8DA3FF"/>
<path d="M50.1026 13.0049H47.9941V7.30078H50.0998C50.681 7.30078 51.1814 7.41498 51.601 7.64337C52.0225 7.8699 52.3475 8.1967 52.5758 8.62377C52.8042 9.04898 52.9184 9.55775 52.9184 10.1501C52.9184 10.7443 52.8042 11.2549 52.5758 11.682C52.3493 12.109 52.0253 12.4368 51.6038 12.6651C51.1823 12.8917 50.6819 13.0049 50.1026 13.0049ZM49.3728 11.8296H50.0496C50.369 11.8296 50.6392 11.7757 50.8601 11.668C51.083 11.5585 51.251 11.3811 51.3643 11.136C51.4794 10.8891 51.537 10.5604 51.537 10.1501C51.537 9.73972 51.4794 9.41292 51.3643 9.16967C51.2491 8.92457 51.0793 8.74817 50.8546 8.64048C50.6318 8.53093 50.3569 8.47615 50.0301 8.47615H49.3728V11.8296Z" fill="#8DA3FF"/>
<rect x="20.5879" y="39.9658" width="26.4709" height="7.84322" rx="3.92161" fill="#D9E4F1"/>
<path d="M27.9424 20.9956V16.8514C27.9424 13.0945 31.9306 10.6796 35.2596 12.4208L39.0184 14.3866C42.5084 16.2119 42.6159 21.1683 39.2082 23.1432L35.4495 25.3216C32.1162 27.2534 27.9424 24.8483 27.9424 20.9956Z" fill="#5F7EFF"/>
</svg>
