<svg width="47" height="49" viewBox="0 0 47 49" fill="none" xmlns="http://www.w3.org/2000/svg">
<path d="M41.353 5.53516H5.97998V24.1221C5.98003 29.6394 7.751 34.4881 10.8013 37.9238C13.8246 41.3291 18.2167 43.4805 23.7954 43.4805C34.5833 43.4803 41.3529 34.2127 41.353 24.1221V5.53516ZM46.353 24.1221C46.3529 36.1464 38.1054 48.4803 23.7954 48.4805C16.8251 48.4805 11.059 45.7453 7.06201 41.2432C3.09205 36.7715 0.98003 30.6909 0.97998 24.1221V0.535156H46.353V24.1221Z" fill="#4BE8FF"/>
<path d="M24.9673 20.2646C24.9673 19.6176 24.4425 19.0929 23.7954 19.0928C23.1483 19.0928 22.6235 19.6175 22.6235 20.2646C22.6236 20.9117 23.1483 21.4365 23.7954 21.4365V26.4365L23.478 26.4277C20.3221 26.2679 17.7913 23.7379 17.6313 20.582L17.6235 20.2646C17.6235 16.8561 20.3869 14.0928 23.7954 14.0928L24.1128 14.1006C27.3738 14.2659 29.9673 16.9626 29.9673 20.2646L29.9585 20.582C29.7932 23.8429 27.0974 26.4364 23.7954 26.4365V21.4365C24.4424 21.4364 24.9672 20.9116 24.9673 20.2646Z" fill="#4BE8FF"/>
<path d="M21.2952 34.665L21.2952 25.9219C21.2952 24.5412 22.4145 23.4219 23.7952 23.4219C25.1759 23.4219 26.2952 24.5412 26.2952 25.9219L26.2952 34.665C26.2952 36.0458 25.1759 37.165 23.7952 37.165C22.4145 37.165 21.2952 36.0458 21.2952 34.665Z" fill="#4BE8FF"/>
</svg>
