<svg width="45" height="44" viewBox="0 0 45 44" fill="none" xmlns="http://www.w3.org/2000/svg">
<path d="M0.583252 2.5124C0.583252 1.4204 1.46849 0.535156 2.5605 0.535156C3.6525 0.535156 4.53774 1.4204 4.53774 2.5124V39.3888H42.1054C43.1971 39.3888 44.0821 40.2744 44.0826 41.366C44.0826 42.458 43.1974 43.3433 42.1054 43.3433H2.5605C1.46849 43.3433 0.583252 42.458 0.583252 41.366V2.5124Z" fill="#4BE8FF"/>
<path d="M40.5729 8.75406C41.2627 7.90781 42.5089 7.78053 43.3553 8.47022C44.2014 9.16001 44.3286 10.4062 43.6392 11.2527L30.5612 27.3004C30.1775 27.7713 29.5986 28.0397 28.9913 28.0283C28.3843 28.0168 27.8162 27.7272 27.4505 27.2424L20.4568 17.9741L11.088 32.8826C10.5068 33.8068 9.28593 34.0852 8.36158 33.5044C7.43727 32.9232 7.15902 31.7023 7.73983 30.7779L18.6378 13.4442L18.7788 13.2473C19.1332 12.8126 19.6591 12.5454 20.227 12.5213C20.8764 12.4936 21.498 12.7882 21.8895 13.3071L29.0879 22.8477L40.5729 8.75406Z" fill="#4BE8FF"/>
</svg>
