<svg width="46" height="42" viewBox="0 0 46 42" fill="none" xmlns="http://www.w3.org/2000/svg">
<path d="M16.3903 10.5456C16.9641 10.4862 17.5351 10.6825 17.96 11.0831L24.2865 17.0465L26.6125 13.793C26.9447 13.3282 27.4509 13.0262 28.0085 12.9593C28.5657 12.8927 29.1252 13.0667 29.5526 13.4401L39.2041 21.876L39.3562 22.022C40.0648 22.7815 40.1126 23.9841 39.4351 24.8029C38.7568 25.622 37.5914 25.7678 36.7478 25.17L36.5839 25.0402L28.585 18.0485L26.2116 21.373C25.8716 21.8486 25.3499 22.1532 24.7781 22.2107C24.2065 22.268 23.6375 22.0739 23.2143 21.6752L16.8977 15.7179L10.5753 24.6772C9.9198 25.6057 8.65567 25.8128 7.75166 25.1396C6.84771 24.4663 6.64622 23.1677 7.30147 22.2391L14.9568 11.3934L15.091 11.221C15.4255 10.8399 15.8883 10.5976 16.3903 10.5456Z" fill="#5F7EFF"/>
<path d="M41.8256 6.57943C41.8256 5.46671 40.9098 4.56467 39.7801 4.56467H7.05287C5.92319 4.56467 5.00741 5.46671 5.00741 6.57943V26.4909C5.00741 27.6036 5.92319 28.5056 7.05287 28.5056H39.7801C40.9098 28.5056 41.8256 27.6036 41.8256 26.4909V6.57943ZM45.9165 26.4909C45.9165 29.829 43.1692 32.5352 39.7801 32.5352H7.05287C3.66385 32.5352 0.916504 29.829 0.916504 26.4909V6.57943C0.916504 3.24127 3.66385 0.535156 7.05287 0.535156H39.7801C43.1692 0.535157 45.9165 3.24127 45.9165 6.57943V26.4909Z" fill="#5F7EFF"/>
<path d="M37.8946 37.5352L38.1 37.5449C39.1199 37.647 39.9165 38.4993 39.9165 39.5352C39.9165 40.571 39.1199 41.4233 38.1 41.5254L37.8946 41.5352H8.9384C7.82174 41.5352 6.9165 40.6397 6.9165 39.5352C6.9165 38.4306 7.82174 37.5352 8.9384 37.5352H37.8946Z" fill="#5F7EFF"/>
<path d="M25.9165 39.534C25.9165 40.6392 25.0211 41.5352 23.9165 41.5352C22.8119 41.5352 21.9165 40.6392 21.9165 39.534L21.9165 30.5364C21.9165 29.4311 22.8119 28.5352 23.9165 28.5352C25.0211 28.5352 25.9165 29.4311 25.9165 30.5364L25.9165 39.534Z" fill="#5F7EFF"/>
</svg>
