<svg width="60" height="61" viewBox="0 0 60 61" fill="none" xmlns="http://www.w3.org/2000/svg">
<rect y="0.0898438" width="60" height="60" rx="30" fill="#EBEFFF"/>
<path d="M15 15.3121C15 14.0848 15.9649 13.0898 17.1552 13.0898H37.8448C39.0351 13.0898 40 14.0848 40 15.3121V46.8676C40 48.0949 39.0351 49.0898 37.8448 49.0898H17.1552C15.9649 49.0898 15 48.0949 15 46.8676V15.3121Z" fill="#5F7EFF"/>
<path d="M41.365 14.0469C41.7716 14.4641 42 15.0298 42 15.6197V43.8657C42 45.0941 41.0294 46.0898 39.8322 46.0898H19.1678C17.9706 46.0898 17 45.0941 17 43.8657V12.314C17 11.0856 17.9706 10.0898 19.1678 10.0898H36.6099C37.1848 10.0898 37.7361 10.3241 38.1427 10.7412L41.365 14.0469Z" fill="#D9E4F1"/>
<path d="M34 18.0898C34 20.299 31.9853 22.0898 29.5 22.0898C27.0147 22.0898 25 20.299 25 18.0898C25 15.8807 27.0147 14.0898 29.5 14.0898C31.9853 14.0898 34 15.8807 34 18.0898Z" fill="#8DA3FF"/>
<path d="M25 26.5898C25 24.1046 26.9188 22.0898 29.2857 22.0898H30.7143C33.0812 22.0898 35 24.1046 35 26.5898C35 27.4183 34.3604 28.0898 33.5714 28.0898H26.4286C25.6396 28.0898 25 27.4183 25 26.5898Z" fill="#8DA3FF"/>
<path d="M36.6744 33.0898C37.4065 33.0898 38 33.5376 38 34.0898C38 34.6421 37.4065 35.0898 36.6744 35.0898H20.3256C19.5935 35.0898 19 34.6421 19 34.0898C19 33.5376 19.5935 33.0898 20.3256 33.0898H36.6744Z" fill="#8DA3FF"/>
<path d="M30.7 38.0898C31.418 38.0898 32 38.7614 32 39.5898C32 40.4183 31.418 41.0898 30.7 41.0898H20.3C19.582 41.0898 19 40.4183 19 39.5898C19 38.7614 19.582 38.0898 20.3 38.0898H30.7Z" fill="#8DA3FF"/>
<path d="M49 40.0898C49 43.4036 46.3137 46.0898 43 46.0898C39.6863 46.0898 37 43.4036 37 40.0898C37 36.7761 39.6863 34.0898 43 34.0898C46.3137 34.0898 49 36.7761 49 40.0898Z" fill="#335AFF"/>
<path d="M39.205 37.2656C39.4784 37.0313 39.9215 37.0313 40.1949 37.2656L45.795 42.0657C46.0683 42.3 46.0683 42.6798 45.795 42.9141C45.5216 43.1484 45.0785 43.1484 44.8051 42.9141L39.205 38.114C38.9317 37.8797 38.9317 37.4999 39.205 37.2656Z" fill="#8DA3FF"/>
<path d="M39.205 42.9141C38.9317 42.6798 38.9317 42.3 39.205 42.0657L44.8051 37.2656C45.0785 37.0313 45.5216 37.0313 45.795 37.2656C46.0683 37.4999 46.0683 37.8797 45.795 38.114L40.1949 42.9141C39.9215 43.1484 39.4784 43.1484 39.205 42.9141Z" fill="#8DA3FF"/>
</svg>
