<svg width="51" height="47" viewBox="0 0 51 47" fill="none" xmlns="http://www.w3.org/2000/svg">
<g clip-path="url(#clip0_81_1785)">
<path d="M17.3113 31.0493L14.6131 39.2776L14.5249 46.275H20.8627V42.7617H17.9822V40.1197L19.8044 34.5636H31.1384L32.9606 40.1197V42.7617H30.0801V46.275H36.4179V39.8336L33.6315 31.0493H17.3113Z" fill="#2EE0A2"/>
<path d="M25.4713 27.5361C28.9662 27.5361 31.8082 24.6473 31.8082 21.0947C31.8082 17.5421 28.9662 14.6533 25.4713 14.6533C21.9764 14.6533 19.1345 17.5421 19.1345 21.0947C19.1345 24.6473 21.9764 27.5361 25.4713 27.5361ZM25.4713 18.1656C27.0598 18.1656 28.3519 19.4791 28.3519 21.0937C28.3519 22.7083 27.0598 24.0218 25.4713 24.0218C23.8829 24.0218 22.5908 22.7083 22.5908 21.0937C22.5908 19.4791 23.8829 18.1656 25.4713 18.1656Z" fill="#2EE0A2"/>
<path d="M4.15524 26.0645L5.9785 20.5084H16.2541V16.9951H3.48539L0.787165 25.2234L0.698975 32.2208H7.03579V28.7075H4.15524V26.0645Z" fill="#2EE0A2"/>
<path d="M11.6454 13.4805C15.1403 13.4805 17.9822 10.5916 17.9822 7.03906C17.9822 3.48647 15.1403 0.597656 11.6454 0.597656C8.15052 0.597656 5.30762 3.48647 5.30762 7.03906C5.30762 10.5916 8.15051 13.4805 11.6454 13.4805ZM11.6454 4.11096C13.2338 4.11096 14.526 5.42443 14.526 7.03906C14.526 8.65369 13.2338 9.96715 11.6454 9.96715C10.057 9.96715 8.76487 8.65369 8.76487 7.03906C8.76487 5.42443 10.056 4.11096 11.6454 4.11096Z" fill="#2EE0A2"/>
<path d="M47.4575 16.9951H34.6887V20.5084H44.9644L46.7876 26.0645V28.7075H43.9071V32.2208H50.2439V25.7794L47.4575 16.9951Z" fill="#2EE0A2"/>
<path d="M39.2975 13.4805C42.7924 13.4805 45.6343 10.5916 45.6343 7.03906C45.6343 3.48647 42.7924 0.597656 39.2975 0.597656C35.8026 0.597656 32.9607 3.48647 32.9607 7.03906C32.9607 10.5917 35.8036 13.4805 39.2975 13.4805ZM39.2975 4.11096C40.8859 4.11096 42.1781 5.42443 42.1781 7.03906C42.1781 8.65369 40.8859 9.96715 39.2975 9.96715C37.7091 9.96715 36.417 8.65369 36.417 7.03906C36.417 5.42443 37.7091 4.11096 39.2975 4.11096Z" fill="#2EE0A2"/>
</g>
<defs>
<clipPath id="clip0_81_1785">
<rect width="50" height="46" fill="white" transform="translate(0.583252 0.535156)"/>
</clipPath>
</defs>
</svg>
