<svg width="67" height="51" viewBox="0 0 67 51" fill="none" xmlns="http://www.w3.org/2000/svg">
<path d="M33.107 4.47277V46.9982H43.2316V4.47277H33.107ZM47.1692 50.9358H29.1694V4.47277C29.1694 2.43377 30.7193 0.757641 32.7052 0.556306L33.107 0.535156H43.2316C45.4063 0.535156 47.1692 2.29809 47.1692 4.47277V50.9358Z" fill="#5F7EFF"/>
<path d="M43.2073 25.0103L48.4541 26.9253L43.2073 28.8402L41.2654 34.016L39.3235 28.8402L34.0767 26.9253L39.3235 25.0103L41.2654 19.8345L43.2073 25.0103Z" fill="#5F7EFF"/>
<path d="M40.064 41.6916L43.0537 42.7817L40.064 43.8719L38.9585 46.8193L37.853 43.8719L34.8652 42.7817L37.853 41.6916L38.9585 38.7441L40.064 41.6916Z" fill="#5F7EFF"/>
<path d="M57.9116 33.3003L66.9692 36.6054L57.9116 39.9123L54.5604 48.845L51.2092 39.9123L42.1516 36.6054L51.2092 33.3003L54.5604 24.3677L57.9116 33.3003Z" fill="#5F7EFF"/>
<path d="M18.5377 18.8737V46.9987H26.8628V18.8737H18.5377ZM30.8004 50.9364H14.6001V18.8737C14.6001 16.699 16.363 14.936 18.5377 14.936H26.8628C29.0375 14.936 30.8004 16.699 30.8004 18.8737V50.9364Z" fill="#5F7EFF"/>
<path d="M3.96857 31.4723V46.9978H12.2936V31.4723H3.96857ZM16.2312 50.9354H0.0310059V31.4723C0.0310084 29.2976 1.79391 27.5347 3.96857 27.5347H12.2936C14.4682 27.5347 16.2312 29.2976 16.2312 31.4723V50.9354Z" fill="#5F7EFF"/>
</svg>
