<svg width="60" height="61" viewBox="0 0 60 61" fill="none" xmlns="http://www.w3.org/2000/svg">
<rect y="0.0898438" width="60" height="60" rx="30" fill="#EBEFFF"/>
<path d="M44.9763 31.7604C44.9763 41.1427 37.3704 48.7485 27.9882 48.7485C18.6059 48.7485 11 41.1427 11 31.7604C11 22.3781 18.6059 14.7722 27.9882 14.7722C37.3704 14.7722 44.9763 22.3781 44.9763 31.7604Z" fill="#5F7EFF"/>
<path d="M49 29.078C49 38.4603 41.3941 46.0661 32.0118 46.0661C22.6295 46.0661 15.0237 38.4603 15.0237 29.078C15.0237 19.6957 22.6295 12.0898 32.0118 12.0898C41.3941 12.0898 49 19.6957 49 29.078Z" fill="#D9E4F1"/>
<mask id="mask0_34_216" style="mask-type:alpha" maskUnits="userSpaceOnUse" x="15" y="12" width="35" height="35">
<path d="M49.0002 29.078C49.0002 38.4603 41.3944 46.0661 32.0121 46.0661C22.6298 46.0661 15.0239 38.4603 15.0239 29.078C15.0239 19.6957 22.6298 12.0898 32.0121 12.0898C41.3944 12.0898 49.0002 19.6957 49.0002 29.078Z" fill="#D9E4F1"/>
</mask>
<g mask="url(#mask0_34_216)">
<path d="M28.0489 10.1211C28.3956 9.66041 29.0502 9.56803 29.5109 9.91473C29.9715 10.2614 30.0638 10.9156 29.7172 11.3763C25.491 16.9916 19.5656 31.8797 29.7372 46.36C30.0686 46.8318 29.9549 47.4832 29.4831 47.8146C29.0114 48.146 28.3603 48.0319 28.0289 47.5602C17.1497 32.0725 23.5039 16.1601 28.0489 10.1211Z" fill="#5F7EFF"/>
<path d="M14.4025 32.1522C13.9392 31.8091 13.8417 31.1552 14.1848 30.6919C14.5278 30.2287 15.1814 30.1312 15.6447 30.4741C20.9003 34.3656 34.8457 39.8259 48.4064 30.4545C48.8806 30.1268 49.5307 30.2454 49.8585 30.7196C50.1863 31.1939 50.0678 31.8444 49.5935 32.1721C35.036 42.2324 20.0818 36.3573 14.4025 32.1522Z" fill="#5F7EFF"/>
<path d="M34.4902 9.93226C34.941 9.57287 35.598 9.647 35.9574 10.0978C40.5389 15.845 46.8569 31.2916 36.0092 47.5398C35.6891 48.0192 35.041 48.1485 34.5615 47.8285C34.082 47.5084 33.9527 46.8599 34.2728 46.3804C44.4761 31.0975 38.5145 16.6554 34.3246 11.3995C33.9652 10.9487 34.0393 10.2917 34.4902 9.93226Z" fill="#5F7EFF"/>
<path d="M14.1759 26.5579C13.8395 26.0898 13.9464 25.4374 14.4145 25.1009C19.82 21.2149 34.2978 15.8781 49.5386 25.0544C50.0324 25.3517 50.1918 25.9931 49.8946 26.4869C49.5972 26.9809 48.9555 27.1403 48.4616 26.843C34.1177 18.2067 20.5515 23.2605 15.633 26.7965C15.1649 27.1329 14.5125 27.026 14.1759 26.5579Z" fill="#5F7EFF"/>
</g>
</svg>
