<svg width="60" height="61" viewBox="0 0 60 61" fill="none" xmlns="http://www.w3.org/2000/svg">
<rect y="0.0898438" width="60" height="60" rx="30" fill="#EBEFFF"/>
<path d="M31 18.2898C33.1217 18.2898 35.1566 19.1326 36.6569 20.6329C38.1571 22.1332 39 24.1681 39 26.2898L31 26.2898L31 18.2898Z" fill="#8DA3FF"/>
<path d="M10 18.9914C10 17.8782 10.9024 16.9758 12.0155 16.9758H41.0824C42.1955 16.9758 43.0979 17.8782 43.0979 18.9914V41.6052C43.0979 42.7183 42.1955 43.6207 41.0824 43.6207H12.0155C10.9024 43.6207 10 42.7183 10 41.6052V18.9914Z" fill="#5F7EFF"/>
<path d="M13.1658 16.3053C13.1658 15.1922 14.0682 14.2898 15.1813 14.2898H44.2482C45.3613 14.2898 46.2637 15.1922 46.2637 16.3053V38.9191C46.2637 40.0323 45.3613 40.9347 44.2482 40.9347H15.1813C14.0682 40.9347 13.1658 40.0323 13.1658 38.9191V16.3053Z" fill="#D9E4F1"/>
<path d="M39.4861 29.987C39.4861 28.8738 40.3885 27.9714 41.5016 27.9714H48.295C49.4082 27.9714 50.3106 28.8738 50.3106 29.987V44.2742C50.3106 45.3874 49.4082 46.2898 48.295 46.2898H41.5016C40.3885 46.2898 39.4861 45.3874 39.4861 44.2742V29.987Z" fill="#335AFF"/>
<path d="M37.0079 28.572C37.0079 29.9672 36.5942 31.3311 35.8191 32.4912C35.0439 33.6513 33.9422 34.5554 32.6532 35.0894C31.3641 35.6233 29.9457 35.763 28.5773 35.4908C27.2089 35.2186 25.9519 34.5467 24.9654 33.5602C23.9788 32.5736 23.3069 31.3166 23.0347 29.9482C22.7625 28.5798 22.9022 27.1614 23.4362 25.8724C23.9701 24.5833 24.8743 23.4816 26.0344 22.7065C27.1944 21.9313 28.5583 21.5176 29.9536 21.5176V28.572H37.0079Z" fill="#5F7EFF"/>
<path d="M48.2959 37.2388C48.2959 37.8766 48.1068 38.5001 47.7524 39.0304C47.3981 39.5607 46.8944 39.9741 46.3052 40.2182C45.7159 40.4622 45.0675 40.5261 44.4419 40.4017C43.8164 40.2772 43.2417 39.9701 42.7907 39.5191C42.3397 39.0681 42.0326 38.4935 41.9082 37.8679C41.7837 37.2424 41.8476 36.5939 42.0917 36.0047C42.3358 35.4154 42.7491 34.9118 43.2794 34.5574C43.8097 34.2031 44.4332 34.0139 45.0711 34.0139V37.2388H48.2959Z" fill="#D9E4F1"/>
<path d="M45.6753 32.4016C46.7979 32.4016 47.8745 32.8263 48.6682 33.5823C49.462 34.3383 49.908 35.3636 49.908 36.4327L45.6753 36.4327L45.6753 32.4016Z" fill="#8DA3FF"/>
<path d="M31.7676 18.696C34.1197 18.696 36.3754 19.5879 38.0385 21.1755C39.7016 22.763 40.636 24.9162 40.636 27.1613L31.7676 27.1613L31.7676 18.696Z" fill="#8DA3FF"/>
</svg>
