<svg width="60" height="61" viewBox="0 0 60 61" fill="none" xmlns="http://www.w3.org/2000/svg">
<rect y="0.0898438" width="60" height="60" rx="30" fill="#EBEFFF"/>
<path d="M9.00049 21.305C9.00049 20.148 9.93849 19.21 11.0956 19.21H41.6748C42.8319 19.21 43.7699 20.148 43.7699 21.305V41.6318C43.7699 42.7888 42.8319 43.7268 41.6748 43.7268H11.0956C9.93849 43.7268 9.00049 42.7888 9.00049 41.6318V21.305Z" fill="#5F7EFF"/>
<path d="M11.2288 18.1849C11.2288 17.0278 12.1668 16.0898 13.3238 16.0898H44.3488C45.5059 16.0898 46.4439 17.0278 46.4439 18.1849V38.5116C46.4439 39.6687 45.5059 40.6067 44.3488 40.6067H13.3238C12.1668 40.6067 11.2288 39.6687 11.2288 38.5116V18.1849Z" fill="#D9E4F1"/>
<path d="M14.1919 21.1048C14.1919 19.9478 15.1299 19.0098 16.287 19.0098H18.585C19.7421 19.0098 20.6801 19.9478 20.6801 21.1048V36.3793C20.6801 37.5364 19.7421 38.4744 18.585 38.4744H16.287C15.1299 38.4744 14.1919 37.5364 14.1919 36.3793V21.1048Z" fill="#8DA3FF"/>
<path d="M21.3276 26.9442C21.3276 25.7871 22.2656 24.8491 23.4227 24.8491H25.7208C26.8779 24.8491 27.8159 25.7871 27.8159 26.9442V36.3793C27.8159 37.5364 26.8779 38.4744 25.7208 38.4744H23.4227C22.2656 38.4744 21.3276 37.5364 21.3276 36.3793V26.9442Z" fill="#8DA3FF"/>
<path d="M28.4636 30.8373C28.4636 29.6802 29.4016 28.7422 30.5587 28.7422H32.8568C34.0138 28.7422 34.9518 29.6802 34.9518 30.8373V36.3794C34.9518 37.5365 34.0138 38.4745 32.8568 38.4745H30.5587C29.4016 38.4745 28.4636 37.5365 28.4636 36.3794V30.8373Z" fill="#8DA3FF"/>
<path d="M51 32.0898C51 35.4036 48.3137 38.0898 45 38.0898C41.6863 38.0898 39 35.4036 39 32.0898C39 28.7761 41.6863 26.0898 45 26.0898C48.3137 26.0898 51 28.7761 51 32.0898Z" fill="#335AFF"/>
<path d="M46.7552 29.3985C46.9917 29.0492 47.4291 28.9871 47.7322 29.2597C48.0352 29.5323 48.0891 30.0365 47.8526 30.3858L44.8768 34.7811C44.7534 34.9634 44.5678 35.0754 44.3675 35.0885C44.1673 35.1017 43.9718 35.0147 43.8313 34.8497L42.1993 32.9338L42.152 32.8724C41.9315 32.5549 41.9514 32.09 42.2086 31.799C42.4657 31.5081 42.8691 31.494 43.1404 31.7538L43.1929 31.8096L44.268 33.0721L46.7552 29.3985Z" fill="#D9E4F1"/>
</svg>
