<svg width="62" height="62" viewBox="0 0 62 62" fill="none" xmlns="http://www.w3.org/2000/svg">
<rect y="0.489746" width="61.2" height="61.2" rx="30.6" fill="#EBEFFF"/>
<path d="M37.9206 31.2477C37.9206 35.573 34.4142 39.0794 30.089 39.0794C25.7637 39.0794 22.2573 35.573 22.2573 31.2477C22.2573 26.9224 25.7637 23.416 30.089 23.416C34.4142 23.416 37.9206 26.9224 37.9206 31.2477Z" fill="#5F7EFF"/>
<path d="M49.1778 31.1254C49.1778 33.3556 47.4246 35.1636 45.262 35.1636C43.0994 35.1636 41.3462 33.3556 41.3462 31.1254C41.3462 28.8951 43.0994 27.0872 45.262 27.0872C47.4246 27.0872 49.1778 28.8951 49.1778 31.1254Z" fill="#5F7EFF"/>
<path d="M30.0885 50.3373C27.8583 50.3373 26.0503 48.5841 26.0503 46.4215C26.0503 44.2588 27.8583 42.5056 30.0885 42.5056C32.3188 42.5056 34.1267 44.2588 34.1267 46.4215C34.1267 48.5841 32.3188 50.3373 30.0885 50.3373Z" fill="#5F7EFF"/>
<path d="M18.8314 31.1254C18.8314 33.3556 17.0782 35.1636 14.9156 35.1636C12.7529 35.1636 10.9998 33.3556 10.9998 31.1254C10.9998 28.8951 12.7529 27.0872 14.9156 27.0872C17.0782 27.0872 18.8314 28.8951 18.8314 31.1254Z" fill="#5F7EFF"/>
<path d="M30.0885 19.9899C27.8583 19.9899 26.0503 18.2367 26.0503 16.074C26.0503 13.9114 27.8583 12.1582 30.0885 12.1582C32.3188 12.1582 34.1267 13.9114 34.1267 16.074C34.1267 18.2367 32.3188 19.9899 30.0885 19.9899Z" fill="#5F7EFF"/>
<path d="M39.3896 29.7792C39.3896 34.1045 35.8832 37.6109 31.5579 37.6109C27.2327 37.6109 23.7263 34.1045 23.7263 29.7792C23.7263 25.4539 27.2327 21.9475 31.5579 21.9475C35.8832 21.9475 39.3896 25.4539 39.3896 29.7792Z" fill="#D9E4F1"/>
<path d="M50.6468 29.6569C50.6468 31.8871 48.8936 33.6951 46.731 33.6951C44.5684 33.6951 42.8152 31.8871 42.8152 29.6569C42.8152 27.4266 44.5684 25.6187 46.731 25.6187C48.8936 25.6187 50.6468 27.4266 50.6468 29.6569Z" fill="#D9E4F1"/>
<path d="M31.5575 48.8688C29.3273 48.8688 27.5193 47.1156 27.5193 44.953C27.5193 42.7903 29.3273 41.0371 31.5575 41.0371C33.7877 41.0371 35.5957 42.7903 35.5957 44.953C35.5957 47.1156 33.7877 48.8688 31.5575 48.8688Z" fill="#D9E4F1"/>
<path d="M20.3004 29.6569C20.3004 31.8871 18.5472 33.6951 16.3846 33.6951C14.2219 33.6951 12.4688 31.8871 12.4688 29.6569C12.4688 27.4266 14.2219 25.6187 16.3846 25.6187C18.5472 25.6187 20.3004 27.4266 20.3004 29.6569Z" fill="#D9E4F1"/>
<path d="M31.5575 18.5214C29.3273 18.5214 27.5193 16.7682 27.5193 14.6055C27.5193 12.4429 29.3273 10.6897 31.5575 10.6897C33.7877 10.6897 35.5957 12.4429 35.5957 14.6055C35.5957 16.7682 33.7877 18.5214 31.5575 18.5214Z" fill="#D9E4F1"/>
<path d="M34.8732 25.6933C35.2376 25.2265 35.9113 25.1435 36.3781 25.5078C36.8449 25.8721 36.9279 26.5458 36.5636 27.0126L31.98 32.8862C31.7899 33.1298 31.504 33.2796 31.1955 33.2971C30.8871 33.3146 30.5861 33.1984 30.3696 32.978L27.8558 30.4177L27.783 30.3356C27.4433 29.9113 27.4739 29.29 27.8701 28.9011C28.2662 28.5124 28.8875 28.4935 29.3054 28.8408L29.3862 28.9153L31.0422 30.6024L34.8732 25.6933Z" fill="#5F7EFF"/>
</svg>
