<svg width="100" height="101" viewBox="0 0 100 101" fill="none" xmlns="http://www.w3.org/2000/svg">
<path d="M78 27.5898C78 36.1503 71.0604 43.0898 62.5 43.0898C53.9396 43.0898 47 36.1503 47 27.5898C47 19.0294 53.9396 12.0898 62.5 12.0898C71.0604 12.0898 78 19.0294 78 27.5898Z" fill="#5F7EFF"/>
<path d="M84 23.5898C84 32.1503 77.0604 39.0898 68.5 39.0898C59.9396 39.0898 53 32.1503 53 23.5898C53 15.0294 59.9396 8.08984 68.5 8.08984C77.0604 8.08984 84 15.0294 84 23.5898Z" fill="#D9E4F1"/>
<path d="M41 50.5898C41 59.1503 34.0604 66.0898 25.5 66.0898C16.9396 66.0898 10 59.1503 10 50.5898C10 42.0294 16.9396 35.0898 25.5 35.0898C34.0604 35.0898 41 42.0294 41 50.5898Z" fill="#5F7EFF"/>
<path d="M47 46.5898C47 55.1503 40.0604 62.0898 31.5 62.0898C22.9396 62.0898 16 55.1503 16 46.5898C16 38.0294 22.9396 31.0898 31.5 31.0898C40.0604 31.0898 47 38.0294 47 46.5898Z" fill="#D9E4F1"/>
<path d="M78 76.5898C78 85.1503 71.0604 92.0898 62.5 92.0898C53.9396 92.0898 47 85.1503 47 76.5898C47 68.0294 53.9396 61.0898 62.5 61.0898C71.0604 61.0898 78 68.0294 78 76.5898Z" fill="#5F7EFF"/>
<path d="M84 72.5898C84 81.1503 77.0604 88.0898 68.5 88.0898C59.9396 88.0898 53 81.1503 53 72.5898C53 64.0294 59.9396 57.0898 68.5 57.0898C77.0604 57.0898 84 64.0294 84 72.5898Z" fill="#D9E4F1"/>
<path d="M39 49.4229C40.4728 49.4229 41.667 50.6171 41.667 52.0898C41.667 52.4328 41.5984 52.7594 41.4805 53.0605L64.0518 67.2725C64.5385 66.7509 65.2303 66.4229 66 66.4229C67.4728 66.4229 68.667 67.6171 68.667 69.0898C68.667 70.5626 67.4728 71.7568 66 71.7568C64.5272 71.7568 63.333 70.5626 63.333 69.0898C63.333 68.7466 63.4005 68.4195 63.5186 68.1182L40.9473 53.9062C40.4605 54.4278 39.7697 54.7568 39 54.7568C37.5272 54.7568 36.333 53.5626 36.333 52.0898C36.333 50.6171 37.5272 49.4229 39 49.4229Z" fill="#335AFF"/>
<path d="M35.333 44.0898C35.333 42.6171 36.5272 41.4229 38 41.4229C38.7361 41.4229 39.4022 41.7218 39.8848 42.2041L60.5527 28.1494C60.4119 27.8246 60.333 27.4664 60.333 27.0898C60.333 25.6171 61.5272 24.4229 63 24.4229C64.4728 24.4229 65.667 25.6171 65.667 27.0898C65.667 28.5626 64.4728 29.7568 63 29.7568C62.2639 29.7568 61.5968 29.4588 61.1143 28.9766L40.4463 43.0312C40.587 43.356 40.667 43.7134 40.667 44.0898C40.667 45.5626 39.4728 46.7568 38 46.7568C36.5272 46.7568 35.333 45.5626 35.333 44.0898Z" fill="#335AFF"/>
</svg>
