<svg width="57" height="48" viewBox="0 0 57 48" fill="none" xmlns="http://www.w3.org/2000/svg">
<path d="M39.5217 0.535156C40.5421 0.535156 41.3694 1.37151 41.3694 2.4032V30.4239C41.3694 31.4556 40.5421 32.2919 39.5217 32.2919H2.56837C1.54793 32.2919 0.720703 31.4556 0.720703 30.4239V2.4032C0.720703 1.37151 1.54793 0.535156 2.56837 0.535156H39.5217ZM4.41603 28.5558H37.674V4.27125H4.41603V28.5558Z" fill="#2EE0A2"/>
<path d="M45.3388 34.3245V13.8308C45.3388 12.8019 46.1564 11.9678 47.1649 11.9678C48.1733 11.9678 48.9909 12.8019 48.9909 13.8308V34.3245C48.9909 37.4114 46.5383 39.9137 43.5128 39.9137H21.6007C20.5922 39.9137 19.7747 39.0796 19.7747 38.0507C19.7747 37.0217 20.5922 36.1876 21.6007 36.1876H43.5128C44.5213 36.1876 45.3388 35.3535 45.3388 34.3245Z" fill="#2EE0A2"/>
<path d="M52.9604 40.083V21.4524C52.9604 20.4235 53.778 19.5894 54.7864 19.5894C55.7949 19.5894 56.6125 20.4235 56.6125 21.4524V40.083C56.6125 44.1988 53.3423 47.5353 49.3084 47.5353H29.2223C28.2138 47.5353 27.3962 46.7012 27.3962 45.6722C27.3962 44.6433 28.2138 43.8092 29.2223 43.8092H49.3084C51.3254 43.8092 52.9604 42.1409 52.9604 40.083Z" fill="#2EE0A2"/>
</svg>
