<svg width="47" height="47" viewBox="0 0 47 47" fill="none" xmlns="http://www.w3.org/2000/svg">
<g clip-path="url(#clip0_81_1730)">
<path d="M46.0212 0.551758H0.439697V35.5328H11.9408L7.02531 43.7256L9.75382 45.3611L15.6502 35.5328H30.8088L36.7052 45.3611L39.4337 43.7256L34.5182 35.5328H46.0212V0.551758ZM42.8414 32.3521H3.61946V3.73152H42.8405V32.3521H42.8414Z" fill="#4BE8FF"/>
<path d="M12.6299 18.5718C15.8452 18.5718 18.4598 15.9572 18.4598 12.7419C18.4598 9.5266 15.8452 6.91113 12.6299 6.91113C9.4146 6.91113 6.80005 9.52569 6.80005 12.741C6.80005 15.9563 9.4146 18.5718 12.6299 18.5718ZM12.6299 10.0918C14.0913 10.0918 15.28 11.2806 15.28 12.7419C15.28 14.2033 14.0913 15.392 12.6299 15.392C11.1686 15.392 9.97981 14.2033 9.97981 12.7419C9.97981 11.2806 11.1686 10.0918 12.6299 10.0918Z" fill="#4BE8FF"/>
<path d="M30.7149 17.9775L28.4668 20.2265L31.5827 23.3425L28.4668 26.4584L30.7149 28.7065L33.8308 25.5906L36.9468 28.7065L39.1949 26.4584L36.0789 23.3425L39.1949 20.2265L36.9468 17.9775L33.8308 21.0935L30.7149 17.9775Z" fill="#4BE8FF"/>
<path d="M11.5059 26.4583L13.7539 28.7064L30.1204 12.3399V14.4995H33.3011V6.91113H25.7145V10.0918H27.8723L11.5059 26.4583Z" fill="#4BE8FF"/>
</g>
<defs>
<clipPath id="clip0_81_1730">
<rect width="46" height="46" fill="white" transform="translate(0.333252 0.535156)"/>
</clipPath>
</defs>
</svg>
