<svg width="43" height="44" viewBox="0 0 43 44" fill="none" xmlns="http://www.w3.org/2000/svg">
<g clip-path="url(#clip0_81_1760)">
<path d="M5.81491 0.585449C2.66271 0.585449 0.0993652 3.14879 0.0993652 6.30099C0.0993652 9.45319 2.66271 12.0165 5.81491 12.0165C8.9671 12.0165 11.5304 9.45319 11.5304 6.30099C11.5304 3.1488 8.9671 0.585449 5.81491 0.585449ZM5.81491 8.89928C4.38155 8.89928 3.21662 7.73435 3.21662 6.30099C3.21662 4.86763 4.38155 3.70271 5.81491 3.70271C7.24826 3.70271 8.41319 4.86763 8.41319 6.30099C8.41319 7.73435 7.24826 8.89928 5.81491 8.89928Z" fill="#2EE0A2"/>
<path d="M36.9926 12.0174C40.1448 12.0174 42.7082 9.45405 42.7082 6.30185C42.7082 3.14965 40.1448 0.585449 36.9926 0.585449C33.8404 0.585449 31.2771 3.14879 31.2771 6.30099C31.2771 9.45319 33.8404 12.0174 36.9926 12.0174ZM36.9926 3.70356C38.426 3.70356 39.5909 4.86849 39.5909 6.30185C39.5909 7.73521 38.426 8.90013 36.9926 8.90013C35.5593 8.90013 34.3944 7.73521 34.3944 6.30185C34.3944 4.86849 35.5593 3.70356 36.9926 3.70356Z" fill="#2EE0A2"/>
<path d="M5.81491 31.7627C2.66271 31.7627 0.0993652 34.3269 0.0993652 37.4791C0.0993652 40.6313 2.66271 43.1946 5.81491 43.1946C8.9671 43.1946 11.5304 40.6313 11.5304 37.4791C11.5304 34.3269 8.9671 31.7627 5.81491 31.7627ZM5.81491 40.0765C4.38155 40.0765 3.21662 38.9116 3.21662 37.4782C3.21662 36.0449 4.38155 34.88 5.81491 34.88C7.24826 34.88 8.41319 36.0449 8.41319 37.4782C8.41319 38.9116 7.24826 40.0765 5.81491 40.0765Z" fill="#2EE0A2"/>
<path d="M36.9926 31.7627C33.8404 31.7627 31.2771 34.326 31.2771 37.4782C31.2771 40.6304 33.8404 43.1946 36.9926 43.1946C40.1448 43.1946 42.7082 40.6313 42.7082 37.4791C42.7082 34.3269 40.1448 31.7627 36.9926 31.7627ZM36.9926 40.0765C35.5593 40.0765 34.3944 38.9116 34.3944 37.4782C34.3944 36.0449 35.5593 34.88 36.9926 34.88C38.426 34.88 39.5909 36.0449 39.5909 37.4782C39.5901 38.9116 38.4251 40.0765 36.9926 40.0765Z" fill="#2EE0A2"/>
<path d="M21.3409 3.24706L22.8373 4.74263H14.1289V7.86074H22.8373L21.3409 9.35631L23.5454 11.5609L28.8042 6.30126L23.5454 1.04248L21.3409 3.24706Z" fill="#2EE0A2"/>
<path d="M21.467 34.4238L19.2624 32.2192L14.0037 37.4789L19.2624 42.7377L21.467 40.5331L19.9706 39.0375H28.679V35.9194H19.9706L21.467 34.4238Z" fill="#2EE0A2"/>
<path d="M7.37441 29.1651V20.4567L8.86998 21.9531L11.0746 19.7485L5.81493 14.4897L0.556152 19.7485L2.76073 21.9531L4.2563 20.4567V29.1651H7.37441Z" fill="#2EE0A2"/>
<path d="M35.4333 14.6152V23.3236L33.9377 21.8272L31.7332 24.0318L36.9928 29.2906L42.2516 24.0318L40.047 21.8272L38.5514 23.3236V14.6152H35.4333Z" fill="#2EE0A2"/>
</g>
<defs>
<clipPath id="clip0_81_1760">
<rect width="43" height="43" fill="white" transform="translate(0 0.535156)"/>
</clipPath>
</defs>
</svg>
